<svg id="a172ef69-c156-4da2-96af-863a52c5a36b" data-name="图层 1" xmlns="http://www.w3.org/2000/svg" width="47.6" height="41.1" viewBox="0 0 47.6 41.1">
  <title>bonusbox</title>
  <path d="M43.4,41.1H4.2c-1.5,0-2.7-1.6-2.7-3.5V1H46.1V37.6c0,1.9-1.2,3.5-2.7,3.5" fill="#8d552b"/>
  <path d="M47.6,10.2H46.1V0H39.8V10.2H7.8V0H1.6V10.2H0v9.4H1.6V38.4a2.7,2.7,0,0,0,2.7,2.7H43.4a2.7,2.7,0,0,0,2.7-2.7V19.6h1.6ZM42.9,33.1A4.9,4.9,0,0,0,38,38H9.6a4.9,4.9,0,0,0-4.9-4.9V19.6H16.2c0,6.3,3.4,11.4,7.6,11.4s7.6-5.1,7.6-11.4H42.9Z" fill="#f8b133"/>
  <path d="M24.9,18.8a3.1,3.1,0,1,0-2.3,0l-1.9,5a.9.9,0,0,0,.8,1.2h4.5a.9.9,0,0,0,.8-1.2Z" fill="#442402"/>
  <path d="M46.1,13.3H1.6a1.6,1.6,0,0,1,0-3.1H46.1a1.6,1.6,0,0,1,0,3.1Z" fill="#fff" opacity="0.15"/>
  <path d="M6.2,3.1H3.1A1.6,1.6,0,0,1,3.1,0H6.2a1.6,1.6,0,0,1,0,3.1Z" fill="#fff" opacity="0.15"/>
  <path d="M44.5,3.1H41.4a1.6,1.6,0,0,1,0-3.1h3.1a1.6,1.6,0,0,1,0,3.1Z" fill="#fff" opacity="0.15"/>
  <path d="M38.3,4.7H9.3a1.6,1.6,0,1,1,0-3.1H38.3a1.6,1.6,0,0,1,0,3.1Z" fill="#fff" opacity="0.15"/>
</svg>
