<svg id="107f231a-0344-4c10-becc-5512cfc88aa0" data-name="e7ebda87-7c68-4028-ae39-998e0ada5223" xmlns="http://www.w3.org/2000/svg" width="70" height="70" viewBox="0 0 70 70">
  <title>changeCamera</title>
  <circle id="e2755bfa-6f3e-4cd7-aa7a-66af56271cde" data-name="ef37a32c-7653-4803-90c9-323e9590a304" cx="35" cy="35" r="35" fill="#603000" fill-opacity="0.5"/>
  <path id="03499798-6c9f-40c8-9e52-0efec9913ac1" data-name="e1e3f8fb-47ce-42c6-bc4a-8ab571823c16" d="M44.3,44.6H25.8a10,10,0,0,1-10-10V26.4a10,10,0,0,1,10-10h1a2.9,2.9,0,0,1-.4-1.5,3,3,0,0,1,3-3h9.9a3,3,0,0,1,3,3h0a2.9,2.9,0,0,1-.4,1.5h2.5a10,10,0,0,1,10,10v8.2a10,10,0,0,1-10,10ZM35.5,21A9.5,9.5,0,1,0,45,30.5,9.5,9.5,0,0,0,35.5,21Zm0,16.6a7.1,7.1,0,1,1,7.1-7.1,7.1,7.1,0,0,1-7.1,7.1Z" fill="#fff" stroke="#c69732" stroke-width="2"/>
  <path d="M35.1,56.4s15.4-3,15.8-5.4l-3.1-1.8H58A30.2,30.2,0,0,1,35.1,60C20.3,60,14,49.1,14,49.1H24.9l-3.5,1.8S26,56.7,35.1,56.4Z" fill="#fff" stroke="#c69732" stroke-width="2"/>
</svg>
