<svg id="d50cf70c-96f9-46b3-b4cf-50716c1bbed3" data-name="组 5 拷贝" xmlns="http://www.w3.org/2000/svg" width="88" height="88" viewBox="0 0 88 88">
  <title>down</title>
  <rect id="bb062eb3-214b-4412-850f-72688311b64a" data-name="颜色填充 18" width="88" height="88" rx="20" ry="20" fill-opacity="0.4"/>
  <path id="a5d7f7fc-7bfb-47fd-8235-c4aac7f2eb17" data-name="颜色填充 19 拷贝" d="M57.42,32.6,44.48,44.65,31.54,32.6c-3.1-3.13-9.14-1.15-12.24,2s-3.1,10.2,0,13.33L37.86,66.64c3.1,3.13,11.14,3.13,14.24,0L69.66,48.9c3.1-3.13,3.1-11.19,0-14.32S60.53,29.46,57.42,32.6Z"/>
  <path id="167255c0-af67-4af3-98d1-b9462c4d2d7d" data-name="颜色填充 19 拷贝 copy" d="M56.46,32.57,44.52,44.63,32.58,32.57a7.89,7.89,0,0,0-11.16-.07l-.07.07a8.08,8.08,0,0,0,0,11.35L38.9,61.65a7.89,7.89,0,0,0,11.16.07l.07-.07L67.69,43.92a8.08,8.08,0,0,0,0-11.35,7.89,7.89,0,0,0-11.16-.07Z" fill="#ffe0a7" stroke="#000" stroke-width="2"/>
</svg>
