<svg 
 xmlns="http://www.w3.org/2000/svg"
 xmlns:xlink="http://www.w3.org/1999/xlink"
 width="160" height="160"  viewBox="0 0 160 160">
<path fill-rule="evenodd" fill="rgb(255, 242, 199)"
 d="M150.000,160.000 L130.000,160.000 L130.000,157.000 L149.000,157.000 C153.418,157.000 157.000,153.418 157.000,149.000 L157.000,130.000 L160.000,130.000 L160.000,150.000 C160.000,155.523 155.523,160.000 150.000,160.000 ZM157.000,11.000 C157.000,6.582 153.418,3.000 149.000,3.000 L130.000,3.000 L130.000,0.000 L150.000,0.000 C155.523,0.000 160.000,4.477 160.000,10.000 L160.000,30.000 L157.000,30.000 L157.000,11.000 ZM95.500,81.000 L86.000,81.000 L86.000,90.500 C86.000,91.328 85.328,92.000 84.500,92.000 L83.500,92.000 C82.672,92.000 82.000,91.328 82.000,90.500 L82.000,81.000 L72.500,81.000 C71.672,81.000 71.000,80.328 71.000,79.500 L71.000,78.500 C71.000,77.672 71.672,77.000 72.500,77.000 L82.000,77.000 L82.000,67.500 C82.000,66.672 82.672,66.000 83.500,66.000 L84.500,66.000 C85.328,66.000 86.000,66.672 86.000,67.500 L86.000,77.000 L95.500,77.000 C96.328,77.000 97.000,77.672 97.000,78.500 L97.000,79.500 C97.000,80.328 96.328,81.000 95.500,81.000 ZM0.000,150.000 L0.000,130.000 L3.000,130.000 L3.000,149.000 C3.000,153.418 6.582,157.000 11.000,157.000 L30.000,157.000 L30.000,160.000 L10.000,160.000 C4.477,160.000 0.000,155.523 0.000,150.000 ZM3.000,11.000 L3.000,30.000 L0.000,30.000 L0.000,10.000 C0.000,4.477 4.477,0.000 10.000,0.000 L30.000,0.000 L30.000,3.000 L11.000,3.000 C6.582,3.000 3.000,6.582 3.000,11.000 Z"/>
</svg>