<svg id="0a503184-1ef6-4599-9405-578f91443b6d" data-name="图层 1" xmlns="http://www.w3.org/2000/svg" width="315.5" height="86" viewBox="0 0 315.5 86">
  <title>hallcoin</title>
  <g id="cc297167-e74b-471a-ade6-f3160b8de9a3" data-name="组 7">
    <circle id="5001ffe8-7fd2-4be0-9bc7-93e449d16770" data-name="椭圆 6 拷贝 4" cx="43" cy="43" r="42.5" fill="#fff200" stroke="#674a1e"/>
    <circle id="ee4e949d-8a10-4ab6-aebf-2720c253baab" data-name="椭圆 6 拷贝 4 copy" cx="43.3" cy="43.3" r="31.6" fill="#fc0" stroke="#b37512" stroke-width="1.5"/>
    <path id="2644cb11-f7eb-4ab9-a42c-88ad2adc83a7" data-name="形状 3" d="M59.5,36a4,4,0,0,1-1-2.6,4.3,4.3,0,1,1,4.7,4.3L56.8,55.3a114.8,114.8,0,0,0-13.8-1,137.6,137.6,0,0,0-13.7,1L22.9,37.6A4.2,4.2,0,0,1,19,33.4a4.4,4.4,0,0,1,4.3-4.3,4.3,4.3,0,0,1,4.2,4.3,4.6,4.6,0,0,1-1,2.6l6.2,7,2.6-12.5c-1.7-.1-3.3-1.9-3.3-4.2a4.5,4.5,0,1,1,9.1-.1s0,.1,0,.1A4.1,4.1,0,0,1,38.8,30l4.2,12.4h.1L47.3,30a4.6,4.6,0,0,1-1.8-3.7,4.5,4.5,0,1,1,9.1-.1s0,.1,0,.1a4.2,4.2,0,0,1-3.1,4.2L53.5,43ZM25.6,67c0-2.7-.1-8.1,3.5-8.4a137.7,137.7,0,0,1,13.7-1,114,114,0,0,1,13.8,1c3.8.5,3.8,5,3.8,8.4Z" fill="#c0680d"/>
    <path id="ce5fdb84-65e2-44b1-a754-23a8c74ec880" data-name="形状 3 拷贝" d="M59.5,34.9a4,4,0,0,1-1-2.6,4.3,4.3,0,1,1,4.7,4.3L56.8,54.2a114.8,114.8,0,0,0-13.8-1,137.6,137.6,0,0,0-13.7,1L22.9,36.5A4.2,4.2,0,0,1,19,32.3,4.4,4.4,0,0,1,23.3,28a4.3,4.3,0,0,1,4.2,4.3,4.6,4.6,0,0,1-1,2.6l6.2,7,2.6-12.5c-1.7-.1-3.3-1.9-3.3-4.2a4.5,4.5,0,1,1,9.1-.1s0,.1,0,.1a4.1,4.1,0,0,1-2.1,3.7l4.2,12.4h.1l4.1-12.4a4.6,4.6,0,0,1-1.8-3.7,4.5,4.5,0,1,1,9.1-.1s0,.1,0,.1a4.2,4.2,0,0,1-3.1,4.2l2.1,12.5Zm-33.8,31c0-2.7-.1-8.1,3.5-8.4a137.6,137.6,0,0,1,13.7-1,113.8,113.8,0,0,1,13.8,1c3.8.5,3.8,5,3.8,8.4Z" fill="#fffd6d" stroke="#b37512" stroke-width="0.8"/>
  </g>
  <path id="d9f6d7e2-0a4b-4079-8bfc-7f1112c1da49" data-name="Rounded Rectangle 3 copy" d="M295.5,77.5h-29a20,20,0,0,1-20-20v-29a20,20,0,0,1,20-20h29a20,20,0,0,1,20,20v29A20,20,0,0,1,295.5,77.5Zm11-37a2,2,0,0,0-2-2h-19v-19a2,2,0,0,0-2-2h-5a2,2,0,0,0-2,2v19h-19a2,2,0,0,0-2,2v5a2,2,0,0,0,2,2h19v19a2,2,0,0,0,2,2h5a2,2,0,0,0,2-2v-19h19a2,2,0,0,0,2-2Z" fill="#fff3bb"/>
</svg>
