<svg id="4e977ef7-662c-4a14-9569-41463ec30c4b" data-name="图层 1" xmlns="http://www.w3.org/2000/svg" width="94" height="100" viewBox="0 0 94 100">
  <title>icon_rank_list</title>
  <path id="77b3bf4b-2694-46d2-8fee-b948bd93909c" data-name="Rounded Rectangle 1" d="M84,100H10A10,10,0,0,1,0,90V46a10,10,0,0,1,.1-1A47,47,0,0,1,94,45c0,.3.1.7.1,1V90a10,10,0,0,1-10,10Z" transform="translate(0 0)" fill-opacity="0.3"/>
  <g id="f8247662-62b4-47c0-bef3-9245106da6f8" data-name="达人记录" style="isolation: isolate">
    <g style="isolation: isolate">
      <path d="M9,79.6h4.5a15.2,15.2,0,0,0-.1,1.7v5.8q2.4,1.9,7.8,1.9l6.2-.4a5,5,0,0,0-.9,2.2H24.3a48.6,48.6,0,0,1-6.9-.4,9.9,9.9,0,0,1-3.8-1.4l-.9-.4q-.9,0-2.1,2.2a3.2,3.2,0,0,0-1.5-1.5l2.7-2.2V81.3H9.1q0-.5,0-.8T9,79.6Zm1.3-5.7a6.1,6.1,0,0,0,1.6-.9,13.5,13.5,0,0,0,2.3,3.6,3.3,3.3,0,0,0-1.7.9l-.2-.6-.8-1.3-.7-1.2ZM14.1,86a8.7,8.7,0,0,0,4.3-2.7,9.6,9.6,0,0,0,1.5-5H14.9a4,4,0,0,0,.1-.9,4.1,4.1,0,0,0-.1-.9l1.3.2h3.6V72.1l1.7.3H22a9.2,9.2,0,0,0-.6,3.9v.5h5.3a3,3,0,0,0,0,1.7H21.3a9.9,9.9,0,0,1-1.1,5,11.5,11.5,0,0,1-1.9,2.3A11.1,11.1,0,0,1,16,87.4,4.1,4.1,0,0,0,14.1,86Zm7.1-3.7,1.5-1a28,28,0,0,0,3.9,4.6,6.3,6.3,0,0,0-1.8,1.2,11,11,0,0,0-1.4-2.3A18.8,18.8,0,0,0,21.1,82.3Z" transform="translate(0 0)" fill="#fff"/>
      <path d="M29.1,89.9a11.9,11.9,0,0,0,6.1-5.1Q37,81.4,37,75.5a22.6,22.6,0,0,0-.1-2.6,10.2,10.2,0,0,0,2.6.3,5.5,5.5,0,0,0-.6,2.9,15.4,15.4,0,0,0,1.7,7.3,10,10,0,0,0,2.6,3.3,17,17,0,0,0,4.5,2.3,6,6,0,0,0-1.9,1.9,15.6,15.6,0,0,1-5.1-4.2,15.6,15.6,0,0,1-2.5-6.1,16.1,16.1,0,0,1-2.3,6.1A18.1,18.1,0,0,1,31,91.3,6.1,6.1,0,0,0,29.1,89.9Z" transform="translate(0 0)" fill="#fff"/>
      <path d="M49,79.9q0-.6,0-.9c0-.2,0-.6-.1-1.1h4.8a19.4,19.4,0,0,0-.1,2.3v6.9l.6-.6,1.1-1.1.5-.6a3.7,3.7,0,0,0,.7,2,24.3,24.3,0,0,0-4.2,3.8l-.2.2a4,4,0,0,0-1.3-1.7l.5-.3.6-.6a4.2,4.2,0,0,0,.1-1.2V79.8H49ZM51.1,73l1.7-.8L55,75.9l-2,.7A10.6,10.6,0,0,0,51.1,73Zm5.8,2.3c.1-.5.1-.8.1-1a11,11,0,0,0-.1-1.1l2.6.2h6.8a19.8,19.8,0,0,0-.1,2.2v5.4q0,.3.1,1.3v.7H64.3a4.7,4.7,0,0,0,.1-.8v-.6H59V88q0,.8.2,1l1.2.2h3.7q1,0,1.3-.4a4.9,4.9,0,0,0,.3-2.1l.2.2a4.1,4.1,0,0,0,1.9,1,8.1,8.1,0,0,1-.9,2.5,2,2,0,0,1-1.6.5H59.1q-1.8,0-1.8-1.4V81.6q0-.8-.1-1.8h7.1V75.2H56.9Z" transform="translate(0 0)" fill="#fff"/>
      <path d="M69.7,88.2a30.4,30.4,0,0,0,7-3.5,4.4,4.4,0,0,0,.4,1.6,50.9,50.9,0,0,0-6.2,3.7A9.7,9.7,0,0,0,69.7,88.2Zm0-6.7a7.8,7.8,0,0,0,.1-.9,6.9,6.9,0,0,0-.1-.9H81.8V78H72a4.8,4.8,0,0,0,0-1.8h10V74.6H71.5q0-.6,0-.9t-.1-1H84.1a11.7,11.7,0,0,0-.2,1.5l-.4,5.5h3.3a5.9,5.9,0,0,0-.1.9,7.2,7.2,0,0,0,.1.9H79.2A13.8,13.8,0,0,0,80.9,85a20.3,20.3,0,0,0,2.8-2.9,4.8,4.8,0,0,0,1.6,1.6,7.1,7.1,0,0,0-2,1.1l-1.1.8-.5.4A8.3,8.3,0,0,0,84,87.6a10,10,0,0,0,3,.6,7,7,0,0,0-1.4,2.2,13.7,13.7,0,0,1-4.2-2.5A11.3,11.3,0,0,1,79,84v5.3a1.7,1.7,0,0,1-.4,1.3,4.5,4.5,0,0,1-1.9.6l-1,.2a3.8,3.8,0,0,0-.7-2.1h1.7l.6-.2a1.7,1.7,0,0,0,.1-.8V81.4H69.7Zm1.8,1.7a5.2,5.2,0,0,0,1.1-1.2l2.7,2a7,7,0,0,0-1.2,1.3A19.2,19.2,0,0,0,71.5,83.2Z" transform="translate(0 0)" fill="#fff"/>
    </g>
  </g>
  <g>
    <path d="M47.5,18c8.9,0,16.3-1.8,17.1-4.1a1.3,1.3,0,0,0,.1-.4C64.7,11,57,9,47.5,9s-17.2,2-17.2,4.5a1.3,1.3,0,0,0,.1.4C31.2,16.2,38.6,18,47.5,18ZM33.2,12.9a17.5,17.5,0,0,1,3.4-1.1,51.4,51.4,0,0,1,10.9-1.1,51.4,51.4,0,0,1,10.9,1.1,17.5,17.5,0,0,1,3.4,1.1l1,.6-1,.6a17.5,17.5,0,0,1-3.4,1.1,51.2,51.2,0,0,1-10.9,1.1,51.2,51.2,0,0,1-10.9-1.1,17.5,17.5,0,0,1-3.4-1.1l-1-.6Zm42.7,5.3a2,2,0,0,0-2.1-1.6h-9c0-.5,0-.9,0-1.3s-2.8,1.7-5.4,2.3a53,53,0,0,1-11.8,1.2,53,53,0,0,1-11.8-1.2c-2.6-.6-4.4-1.4-5.4-2.3s0,.8,0,1.3H21.2a2,2,0,0,0-2.1,1.6,31.9,31.9,0,0,0,.2,6.8,25.8,25.8,0,0,0,1.6,6.1,16.7,16.7,0,0,0,3.8,5.9c2.9,2.8,6.7,4.2,11.4,4.2a13.6,13.6,0,0,0,8.6,5.8,17.1,17.1,0,0,1,0,6.6H38.4a2.4,2.4,0,0,0-2.4,2l-1,.7H33.1a2.3,2.3,0,0,0-2.4,2.1v8.4A2.3,2.3,0,0,0,33.1,69H61.9a2.1,2.1,0,0,0,2.3-2h0V58.5A2.1,2.1,0,0,0,62,56.5H60.4a4.4,4.4,0,0,0-1.4-.9,2.3,2.3,0,0,0-2.3-1.8h-6a17.1,17.1,0,0,1,0-6.6,13.6,13.6,0,0,0,8.6-5.9,15.7,15.7,0,0,0,11-4.2,16.8,16.8,0,0,0,3.8-5.9,25.7,25.7,0,0,0,1.6-6.1A31.9,31.9,0,0,0,75.9,18.2ZM31.2,36.8a10.1,10.1,0,0,1-3.4-2.1c-4.2-4.1-4.6-11.2-4.6-14.4h7.4c.2,4.9,1,11.7,3.4,17.3A12.3,12.3,0,0,1,31.2,36.8ZM57.7,60.5v3.7H37.2V60.5H57.7Zm9.6-25.8a10.1,10.1,0,0,1-3.4,2.2l-2.4.7c2.4-5.6,3.2-12.3,3.4-17.2h7c0,3.2-.4,10.3-4.6,14.4Z" transform="translate(0 0)" fill="#efd77f"/>
    <path d="M57,41H40V34.1h4.5V30.4H40V23.7a13.6,13.6,0,0,0,4.2-.4c.5-.2.8-1,.9-2.3h8.4V34.1H57V41Z" transform="translate(0 0)" fill="#7f5a38" fill-opacity="0.5"/>
    <path id="b60f9c02-acc5-4843-99f8-3ac3dc44721a" data-name="Shape 2 copy" d="M54.7,39.3H41.9V35.6h3.4V29H41.9V25.4a10.1,10.1,0,0,0,3.2-.3c.4-.2.6-.7.7-1.7h5.6V35.6h3.4Z" transform="translate(0 0)" fill="#fff"/>
  </g>
</svg>
