<svg id="785b30c3-457f-403b-916a-85c26beb3a16" data-name="组 5 拷贝 3" xmlns="http://www.w3.org/2000/svg" width="88" height="88" viewBox="0 0 88 88">
  <title>left</title>
  <rect id="1285414f-b9bc-4ebd-b498-b699dcf56389" data-name="颜色填充 18" width="88" height="88" rx="20" ry="20" fill-opacity="0.4"/>
  <path id="381cb998-1a68-4e46-85ef-67f409d33bf3" data-name="颜色填充 19 拷贝" d="M58.64,35.57,46.5,48.5,58.64,61.43c3.16,3.1,1.16,9.13-2,12.23s-10.27,3.1-13.43,0L25.36,56.12C22.2,53,22.2,43,25.36,39.89L42.21,23.34c3.16-3.1,11.27-3.1,14.43,0S61.8,32.47,58.64,35.57Z"/>
  <path id="4e6c6d7a-dc13-41db-afb1-e71b7ade129b" data-name="颜色填充 19 拷贝 copy" d="M55.64,32.57,43.5,44.5,55.64,56.43a7.84,7.84,0,0,1,.14,11.09l-.14.14a8.18,8.18,0,0,1-11.43,0L26.36,50.12A7.84,7.84,0,0,1,26.22,39l.14-.14L44.21,21.34a8.18,8.18,0,0,1,11.43,0,7.84,7.84,0,0,1,.14,11.09Z" fill="#ffe0a7" stroke="#000" stroke-width="2"/>
</svg>
