<svg id="f72d14c8-4d98-4f24-84a8-fa31513e31f2" data-name="6f8a8295-ffcd-47a7-ab56-7384aa2feb73" xmlns="http://www.w3.org/2000/svg" width="456.01" height="96" viewBox="0 0 456.01 96">
  <title>np_title</title>
  <g id="da3b9b84-85fa-4f53-8f9e-0e5b1e0fd33e" data-name="c976f759-f694-49eb-a353-5d596af338ad">
    <path id="03c82c1d-9551-41aa-855d-9b68794bc662" data-name="56115f3e-78c7-4485-bbfa-92360588e552" d="M3.44,12.26H451.58c2.83,0,5.38,2.44,4.09,5.11L437.25,48c9.11,14.92,18.42,29.62,18.42,29.62,0,3.43-1.27,5.11-4.09,5.11H3.44C.61,82.73-.87,79.58.56,76.6c0,0,8.58-14.5,18.87-28.49A303.82,303.82,0,0,1,.56,18.38C-.89,15.42.62,12.26,3.44,12.26Z" transform="translate(0)" fill="#d74f45"/>
    <path id="a996610f-3dfa-49d4-bbd0-2538b0949f61" data-name="ccb3fb60-c25e-4a7b-b6da-8621720a65da" d="M46.59,0h362a5.11,5.11,0,0,1,5.11,5.11S404.49,26.32,394.31,48c9.86,21.19,19.43,42.89,19.43,42.89A5.11,5.11,0,0,1,408.63,96h-362c-4.69,0-6.56-2.62-5.11-5.11,0,0,10.81-20.81,21.09-42.72-10-21-21.13-43.06-21.14-43.06C40.34,2.77,42,0,46.59,0Z" transform="translate(0)" fill="#e96352"/>
    <path id="a8473ba5-2df3-449e-9529-31d33077d1a4" data-name="c1bbcbc4-5d86-42f1-939a-eb5710c7a271" d="M94.66,54l-5.59-3-5.54,3.11,1.14-6.24L80,43.57l6.3-.85L89,37l2.75,5.72,6.31.74-4.6,4.38Z" transform="translate(0)" fill="#fff"/>
    <path id="1fc3fea1-4a70-4532-9237-7db09161626e" data-name="a7dd7e0d-e0d0-4925-b21d-4d8b20a6a19b" d="M370.79,54l-5.6-3-5.54,3.11,1.14-6.24-4.67-4.3,6.3-.85L365.08,37l2.75,5.72,6.31.74-4.6,4.38Z" transform="translate(0)" fill="#fff"/>
  </g>
  <g>
    <path d="M144.93,43.58l3.34-4.92V50l-5.4-4.87-2.17,2.54h-3q1.48-1.06,3.07-2.12-4-4.77-5.19-5.93L132,42.2a47,47,0,0,1,2.91,5.45h-8.15l.9,3.81h12.6a22.81,22.81,0,0,1-4.66,7.36q-2.44-1.43-5.29-2.75l-2.49,3.44A85.24,85.24,0,0,1,139.9,71.27l4.87-5.72a39.39,39.39,0,0,0-5.29-4.29,39.55,39.55,0,0,0,7.94-8.47l.85-.64v8.74l6.3-.85V37.6h10.7v23.3l6.51-.79V36.91l2-1.75-5.51-4.29-2.86,2.65h-5.14a35.74,35.74,0,0,0,3.92-4.13h8.31l2.12-2.06-4.45-4-2.49,2.38H145.46l1,3.65H157a26.74,26.74,0,0,1-1.32,4.13h-1.11V32.36l-6.3-.69V34.9a27.08,27.08,0,0,1-5-3.6,32.53,32.53,0,0,1-3-2.91q.79-1.54,1.59-3.28l-7.94-2.38a57.12,57.12,0,0,1-9.21,20.33l3.12,1.75a46,46,0,0,0,9.9-11.91,49.76,49.76,0,0,0,7.2,10.7Zm16.78,19.7A43.84,43.84,0,0,1,169,72.33l5.51-5.4A36.8,36.8,0,0,0,164,61.21Zm-4.82-8.74a9.77,9.77,0,0,1-3,7.52,28.51,28.51,0,0,1-9.05,6l2.81,4q7.78-2.86,11.7-7.25a14.21,14.21,0,0,0,4-10.32V39.72l-6.46-.9Z" transform="translate(0)" fill="#fff"/>
    <path d="M178.55,25l1.06,4h2V59.31q-1.8.32-3.65.58l3.87,8q6.78-2.49,12.65-5.08v9.32l7.84-.74V59.15q2.12-1.06,4.13-2.17L205,54.17l-2.75.74V29h1.11l1,3.6h1.32a93.47,93.47,0,0,0,5.56,22.77A74.07,74.07,0,0,1,203,69.63L206.3,72a73.22,73.22,0,0,0,8.21-9.74,38.51,38.51,0,0,0,7.89,10.06l5.45-7.94A42.56,42.56,0,0,1,219,55a57.32,57.32,0,0,0,6.3-22.56l2.59-2.33-7.84-5-3.07,3.44H206l1.75-1.75L203,22.61,200.37,25Zm38,7.57a61.28,61.28,0,0,1-2.17,13.66,83.71,83.71,0,0,1-4.45-13.66ZM189.41,50.41h5v6.41q-2.44.53-5,1.06Zm0-10.54h5v6.51h-5Zm0-10.85h5V36h-5Z" transform="translate(0)" fill="#fff"/>
    <path d="M265.44,31.19q-.37-3.55-.53-7.2l-8.58-1.16q.32,4.29.79,8.37H241.77V28.6l-8.37-1.22V50.09a68.65,68.65,0,0,1-2.81,20.17L234,72.6a28.26,28.26,0,0,0,5.61-9.27,32.54,32.54,0,0,0,2.17-12.81V44.69h5.77q0,9.74-.53,12.13-.11,1.32-1.32,1.32a20.3,20.3,0,0,1-3.65-.37l-.16,3.18q3.6,0,3.6,4.77h4.34q3.76,0,4.66-3,1.06-3.07,1.16-17.53l2.17-2.06-7-5.35-3.55,3.07h-5.51V35H257.6a113.1,113.1,0,0,0,4.66,21.29,91.66,91.66,0,0,1-11.75,12.6l3.18,3.28a78.89,78.89,0,0,0,11.38-9,22.14,22.14,0,0,0,4.55,6.41q2.75,2.22,4.87,2.22A4.13,4.13,0,0,0,278,70.37a9.68,9.68,0,0,0,2.28-3.71,10,10,0,0,1-1.54-5.93,11.25,11.25,0,0,1,.9-4.08l-3.12-1.16q-1.7,6.62-2.54,6.62-1.27-.79-3-5.51a54.58,54.58,0,0,0,8.52-15.41L272,37.86a51.29,51.29,0,0,1-3.81,9.37A121.78,121.78,0,0,1,265.92,35h12.6l2.38-2.22-5.14-4.5-3.07,2.91Zm.32-5.35a27.64,27.64,0,0,1,5.77,5l4.34-4.34a32.75,32.75,0,0,0-7.2-3.6Z" transform="translate(0)" fill="#fff"/>
    <path d="M309.07,32.94h-6.25l1,3.81h5.29v3.6a46.78,46.78,0,0,1-2.86,16.36l-1.75-2.81a53.86,53.86,0,0,1-5.67,2.28V32.41h5.77l2.38-2.22-5-4.5-2.86,2.81H284.39l1.06,3.92h4.66V58.88q-2.91.79-6.25,1.59l4.77,8.15a138.75,138.75,0,0,0,17-10.48,46.52,46.52,0,0,1-6.41,11.12l3.07,2.54q15.25-12.5,15.25-28.17V36.75h4.61Q322.2,56,321,60.63a2.49,2.49,0,0,1-2.81,2.54,32.69,32.69,0,0,1-5.88-.58l-.21,3.18q5.82,0,5.82,5.61h4.71q5.35,0,6.62-4.92,1.54-5.19,1.64-29.49L333,34.79l-7.25-5.51-3.65,3.65h-4.5V24.47l-8.52-.85Z" transform="translate(0)" fill="#fff"/>
  </g>
</svg>
