<svg xmlns="http://www.w3.org/2000/svg" xmlns:xlink="http://www.w3.org/1999/xlink" viewBox="0 0 560 208">
    <!--<defs>-->
        <linearGradient id="a" x1="0" y1="0" x2="0" y2="100%" gradientUnits="userSpaceOnUse">
            <stop offset="0" stop-color="#ecae29"/>
            <stop offset="1" stop-color="#fadf7f"/>
        </linearGradient>
    <!--</defs>-->
    <title>play_start_queue_btn</title>
    <path d="M103,4H459a99,99,0,0,1,99,99v4a99,99,0,0,1-99,99H103A99,99,0,0,1,4,107v-4A99,99,0,0,1,103,4Z"
          transform="translate(-1 -1)" fill="#ebebeb" stroke="#5d5d5d" stroke-width="6" opacity="0.5"
          style="isolation:isolate"/>
    <path d="M105,11H457a94,94,0,0,1,94,94h0a94,94,0,0,1-94,94H105a94,94,0,0,1-94-94h0A94,94,0,0,1,105,11Z"
          transform="translate(-1 -1)" fill="#824f05"/>
    <path d="M104.5,11h353A92.5,92.5,0,0,1,550,103.5h0A92.5,92.5,0,0,1,457.5,196h-353A92.5,92.5,0,0,1,12,103.5h0A92.5,92.5,0,0,1,104.5,11Z"
          transform="translate(-1 -1)" fill="#986721"/>
    <rect x="11" y="10" width="538" height="183" rx="90" ry="90" fill="#aa7226"/>
    <path d="M107,4H457a89,89,0,0,1,89,89h0a89,89,0,0,1-89,89H107A89,89,0,0,1,18,93h0A89,89,0,0,1,107,4Z"
          transform="translate(-1 -1)" fill="url(#a)"/>
    <path d="M457,16H107A89,89,0,0,0,18.2,99c-.1-2-.2-4-.2-6A89,89,0,0,1,107,4H457a89,89,0,0,1,89,89c0,2-.1,4-.2,6A89,89,0,0,0,457,16Z"
          transform="translate(-1 -1)" fill="#fafa84"/>
    <g style="isolation:isolate">
        <path d="M111.4,80.7l10.7.8,9.1.6,8.7.5a20.9,20.9,0,0,1-2,7.8,17.6,17.6,0,0,1-1.8,3.1l-4.5-1.2,1.8-6.1h-6.7l3.2,23-3.3,1-3.5.6a24.7,24.7,0,0,1-4.3.2l-1.2-4.2,2.7-.4,1.9-.3,1.1-.3q-.3-.9-.9-3.3t-1.2-5.3q-.6-2.9-.9-5.9a24.8,24.8,0,0,1-.1-5.3h-4.5l-2.9-.2-2.1-.2ZM127.5,65l-5-.6-4.9-.9a42.1,42.1,0,0,1-5.1-1.3l2.2-5.8,7.6,2,6.6,1.8,5.9,1.8a37.4,37.4,0,0,1-1.6,4.6,24.9,24.9,0,0,1-2.1,3.8,11,11,0,0,1-3.1,3.2l2.8.9a5.6,5.6,0,0,0,1.9.3L131,78.3a60.3,60.3,0,0,1-6.2-.4,32.1,32.1,0,0,1-4.8-1.1,6.1,6.1,0,0,1-3.3-2.2l1.6-5.3,1.7.8,1.8.8,2.3,1,.8-1.5,1.1-2.1,1-2.1A6.3,6.3,0,0,0,127.5,65ZM147,73.9l2-1.9,1.7-1.9a13.4,13.4,0,0,0,1.5-2.1l-4.7-.6-3.5-.8-2.9-.9,1.1-3.2,9,.4h7.1l6.3-.4-.2,5.5-5.9.3h-5l2.5,1.5a18,18,0,0,1-.6,2.2,17.5,17.5,0,0,1-.9,2.1,13.4,13.4,0,0,1-1.6,2.3h8.5l3.9.2q.1,2.7.2,5.9t.1,5.9v6.3h-7.1a5.2,5.2,0,0,1-.1-1.1q0-.8.1-1.8V89.7q.1-1.3.2-2.5l.6-6.5-5-.2h-7.3L146.6,94h-5a13,13,0,0,1-.2-1.4q-.1-1.1-.2-2.7t-.2-3.5q-.1-1.9-.1-3.8t.1-3.6a20.4,20.4,0,0,1,.3-2.8l3.5-.2h5Zm-5.9,31.9a35.3,35.3,0,0,0,2.8-2.7,26.8,26.8,0,0,0,3.1-4,33.3,33.3,0,0,0,2.8-5.4,35.1,35.1,0,0,0,2-6.9l4.3.7A35.9,35.9,0,0,1,155,97a37.4,37.4,0,0,1-1.3,3.8,17.1,17.1,0,0,1-1.9,3.6,15.5,15.5,0,0,1-2.8,3.1,11.8,11.8,0,0,1-3.8,2.1Zm25.5-.9-3.1,5.2a14.2,14.2,0,0,1-3.6-2,15.5,15.5,0,0,1-2.6-2.4,16.8,16.8,0,0,1-2.1-2.9l2-2.5Z"
              transform="translate(-1 -1)" fill="#402407"/>
        <path d="M199.3,95.6l-3.7.4-4.5.2h-6.1l-1.2-5.1,1.9-1.7,4.4-4.4h-4.2a35.4,35.4,0,0,1-4.7-.5l-.4-4.8a74,74,0,0,0,5.5-6.8,65.8,65.8,0,0,0,5.3-8.6l6.2,3.7a46,46,0,0,1-3.1,4.8,42.1,42.1,0,0,1-3.5,4,18.1,18.1,0,0,1-4.5,3.3l2.7.2,2.4.2,2.3.2,2.3-2.9,1.9-2.9,5,4.2a52.5,52.5,0,0,1-3.6,5,33.2,33.2,0,0,1-4,4,17.7,17.7,0,0,1-5.1,3.1l3.2-.2h5.7Zm-14.5,7,4.7-.7,4.6-1,5.2-1.5,1.4,4.9a21,21,0,0,1-5.1,1.7,38.6,38.6,0,0,1-5,.7,33.9,33.9,0,0,1-5.4.1Zm32.3-40.1c0,.6-.1,1.3-.2,2.1s-.2,1.4-.4,2.3a15.6,15.6,0,0,1-.8,2.7h5.5l6.7.2,6.2.3,4,.5q.4,8.3.6,15.6.1,3.2,0,6.4t-.2,6.2q-.1,3-.4,5.4a22.2,22.2,0,0,1-.8,4,16.5,16.5,0,0,1-3.5.9l-3.6.4a15.4,15.4,0,0,1-3.9-.4l-1.2-5.1,2.9-.4,2.3-.3,1.7-.2-.9-28L213.4,74l-1.7,2.2a19.7,19.7,0,0,1-2.2,2.1l-5.9-4.5a46.2,46.2,0,0,0,3.2-3.5,42.1,42.1,0,0,0,3-4,34.7,34.7,0,0,0,2.9-5.2Zm-4.2,22.7,3.2,1.8,3.2,1.8,3.4,2-3.9,6a17.1,17.1,0,0,1-3.5-2,20.7,20.7,0,0,1-2.9-2.5,11.4,11.4,0,0,1-2.3-3.5Z"
              transform="translate(-1 -1)" fill="#402407"/>
        <path d="M253.1,88.9l2.4-.8,3-.9-.7-4q-.3-2-.6-4.1H252l-1.2-4.8,5.8-.6q-.3-2.2-.4-4a14.1,14.1,0,0,1,0-2.9l7.3-1,.7,7,2.3-.3,1.9-.3,1.7-.2V77l-2.6.8-2.8.6.7,7.1,1.8-.4,1.4-.4,1.3-.3.8,4.8-2.2,1-2.5.8,1.2,11.1-3.4,1.2-3.2.8a13.5,13.5,0,0,1-3.4.3l-.9-4.3,2-.4,1.5-.4.8-.4-.5-2.2-.9-4.1-2.1.3-1.7.3h-1.5Zm17.4,14.6a52.9,52.9,0,0,0,2.9-6.3,63,63,0,0,0,2.4-7.8,75.8,75.8,0,0,0,1.6-9.1,68.4,68.4,0,0,0,.4-10q6.1-.9,12.3-2.2a48.6,48.6,0,0,0,11.6-4l1.7,4a16,16,0,0,1-4.6,3.1,42.8,42.8,0,0,1-5.8,2.2,49.7,49.7,0,0,1-5.6,1.4l-3.8.5a52.7,52.7,0,0,1,.4,8.3,57.1,57.1,0,0,1-.9,9.1,37.6,37.6,0,0,1-2.5,8.2,14.5,14.5,0,0,1-4.2,5.8Zm24.7-18.4q0,1.4.1,3.6t.3,4.5l.4,4.8.3,4.2q.1,1.9.3,4.2l-6.2.4a9.9,9.9,0,0,1-1-2.6,18.1,18.1,0,0,1-.5-3.2,34.9,34.9,0,0,1-.1-3.6q0-1.9.2-3.6a73.8,73.8,0,0,1,1.2-8.6Zm10.2-3.5a41.7,41.7,0,0,0,2.4,6.4,43.5,43.5,0,0,0,3.3,5.8,24.7,24.7,0,0,0,5,5.4l-3.8,3.7a20.5,20.5,0,0,1-5.4-3.8,21.8,21.8,0,0,1-3.7-4.8,23.8,23.8,0,0,1-2.2-5.4,26.4,26.4,0,0,1-.9-5.4Z"
              transform="translate(-1 -1)" fill="#402407"/>
        <path d="M325.4,75.6h5.9l1.6-6q.8-3.2,1.5-6.6l6.3,1.1q-.4,1.7-.9,3.7l-1,3.8q-.6,2.1-1.4,4.3h6.2l5.9-.4a43.9,43.9,0,0,1-1.5,9,34.6,34.6,0,0,1-3,7.2l2.1,1.4a4.7,4.7,0,0,1,1.3,1.2l-3.2,5.3-1.2-.9-1.3-.9-1.6-1.2a25.7,25.7,0,0,1-11.1,6.5l-3.2-5a36,36,0,0,0,4.5-2.2,26.1,26.1,0,0,0,4.3-3.2l-2.8-2-2.4-1.7-1.9-1.3-1-.6.5-1.7.6-1.9.8-2.6-2.3-.3-2.3-.3Zm7.3,10.5,2.1.9,2.1,1,2.6,1.2a29.3,29.3,0,0,0,3.8-8.3l-3.9.6-4.1.3L334,84.2A11.2,11.2,0,0,1,332.7,86.1Zm46.8,11.7-2.2.6-2.5.6-3.3.4-.6,6.2h11.4l.4,3.8a23.8,23.8,0,0,1-4.5,1.4,40.3,40.3,0,0,1-4.9.7l-4.9.2h-4.7a71.6,71.6,0,0,1-10.5-1.4l.3-4.5h11.4v-6a51.3,51.3,0,0,1-8.5-1.1v-5l3.9.2h4.7V87.1l7.3.9q0,1.2-.1,2.8t-.2,3.4h7.3ZM379,70.5h-7.1l-1.1,7h10.3v3.7a33.6,33.6,0,0,1-9.5,1.9,57,57,0,0,1-8.9-.2,52.8,52.8,0,0,1-9.2-1.7l.5-4.2,11.2.2.2-7.1-4.4-.6a27.3,27.3,0,0,1-4-1l.3-5.3,3.8.6,4.6.6.3-7.5,7.1.9q0,1.4-.2,3.4l-.4,4.1,2.6.3,2.1.3,1.9.2Z"
              transform="translate(-1 -1)" fill="#402407"/>
        <path d="M397.4,75.6h5.9l1.6-6q.8-3.2,1.5-6.6l6.3,1.1q-.4,1.7-.9,3.7l-1,3.8q-.6,2.1-1.4,4.3h6.2l5.9-.4a43.9,43.9,0,0,1-1.5,9,34.6,34.6,0,0,1-3,7.2l2.1,1.4a4.7,4.7,0,0,1,1.3,1.2l-3.2,5.3-1.2-.9-1.3-.9-1.6-1.2a25.7,25.7,0,0,1-11.1,6.5l-3.2-5a36,36,0,0,0,4.5-2.2,26.1,26.1,0,0,0,4.3-3.2l-2.8-2-2.4-1.7-1.9-1.3-1-.6.5-1.7.6-1.9.8-2.6-2.3-.3-2.3-.3Zm7.3,10.5,2.1.9,2.1,1,2.6,1.2a29.3,29.3,0,0,0,3.8-8.3l-3.9.6-4.1.3L406,84.2A11.2,11.2,0,0,1,404.7,86.1Zm46.8,11.7-2.2.6-2.5.6-3.3.4-.6,6.2h11.4l.4,3.8a23.8,23.8,0,0,1-4.5,1.4,40.3,40.3,0,0,1-4.9.7l-4.9.2h-4.7a71.6,71.6,0,0,1-10.5-1.4l.3-4.5h11.4v-6a51.3,51.3,0,0,1-8.5-1.1v-5l3.9.2h4.7V87.1l7.3.9q0,1.2-.1,2.8t-.2,3.4h7.3ZM451,70.5h-7.1l-1.1,7h10.3v3.7a33.6,33.6,0,0,1-9.5,1.9,57,57,0,0,1-8.9-.2,52.8,52.8,0,0,1-9.2-1.7l.5-4.2,11.2.2.2-7.1-4.4-.6a27.4,27.4,0,0,1-4-1l.3-5.3,3.8.6,4.6.6.3-7.5,7.1.9q0,1.4-.2,3.4l-.4,4.1,2.6.3,2.1.3,1.9.2Z"
              transform="translate(-1 -1)" fill="#402407"/>
    </g>
</svg>