<svg xmlns="http://www.w3.org/2000/svg" xmlns:xlink="http://www.w3.org/1999/xlink" viewBox="0 0 560 208">
    <!--<defs>-->
        <linearGradient id="a" x1="0" y1="0" x2="0" y2="100%" gradientUnits="userSpaceOnUse">

            <stop offset="0" stop-color="#a66b17"/>
            <stop offset="1" stop-color="#dda939"/>
        </linearGradient>
    <!--</defs>-->
    <title>play_cancel_queue_btn</title>
    <path d="M103,4H459a99,99,0,0,1,99,99v4a99,99,0,0,1-99,99H103A99,99,0,0,1,4,107v-4A99,99,0,0,1,103,4Z"
          transform="translate(-1 -1)" fill="#ebebeb" stroke="#5d5d5d" stroke-width="6" opacity="0.5"
          style="isolation:isolate"/>
    <path d="M105,11H457a94,94,0,0,1,94,94h0a94,94,0,0,1-94,94H105a94,94,0,0,1-94-94h0A94,94,0,0,1,105,11Z"
          transform="translate(-1 -1)" fill="#694717"/>
    <path d="M104.5,11h353A92.5,92.5,0,0,1,550,103.5h0A92.5,92.5,0,0,1,457.5,196h-353A92.5,92.5,0,0,1,12,103.5h0A92.5,92.5,0,0,1,104.5,11Z"
          transform="translate(-1 -1)" fill="#77511a"/>
    <rect x="11" y="10" width="538" height="183" rx="90" ry="90" fill="#8a5b17"/>
    <path d="M107,4H457a89,89,0,0,1,89,89h0a89,89,0,0,1-89,89H107A89,89,0,0,1,18,93h0A89,89,0,0,1,107,4Z"
          transform="translate(-1 -1)" fill="url(#a)"/>
    <path d="M457,16H107A89,89,0,0,0,18.2,99c-.1-2-.2-4-.2-6A89,89,0,0,1,107,4H457a89,89,0,0,1,89,89c0,2-.1,4-.2,6A89,89,0,0,0,457,16Z"
          transform="translate(-1 -1)" fill="#c39132"/>
    <g style="isolation:isolate">
        <g style="isolation:isolate">
            <path d="M166.1,110.8v-3.2q0-1.5,0-3.6t0-4.4q-4.5.3-8.3.2l-6.7-.3-6.1-.6.2-5.1,3.5.3,3.5.3q.2-1.7.4-4.5t.4-6.1q.2-3.3.2-6.9t-.3-6.9l3.1-.4-3.4-.6-2.6-.6-2.3-.6.7-3.4,29.2.6.3,3.7a35.7,35.7,0,0,1-5.8,1.2q.1,1.5.1,4.1t.1,5.9q.1,3.3.1,7.1t0,7.7h7l.4,3.5-3.7.7-3.7.5q-.1,3.2-.2,6.1t-.3,5.5Zm-8.4-16.3,8.4.2V88q.1-3.5.2-6.7t.3-6.1q.2-2.8.4-4.9h-4.6l-4.4-.3q.1.8.1,2.4t.1,4l5.9-.2.3,4-6.1.4q.1,1.3,0,2.6t0,2.6h5.5l.4,3.8-6.1.3-.3,2.7A18.3,18.3,0,0,1,157.7,94.5Zm26.6-3.6a24.6,24.6,0,0,0,2.7,2.3l3,2.1a25.9,25.9,0,0,0,2.9-3.5,19.5,19.5,0,0,0,2.2-4.1h-4.3l-4.5-.4a37,37,0,0,1-5.3-1l.8-5.5,6.7,1.2,6.2,1.1,6.2.9v4.9a48.3,48.3,0,0,1-2.1,5.4,27.5,27.5,0,0,1-2.7,4.6L199,100l2.3.9,2.1.7-1.9,5.7a17.8,17.8,0,0,1-5.4-1.1,21.1,21.1,0,0,1-4.6-2.4,24.1,24.1,0,0,1-3.2,2.3,30.4,30.4,0,0,1-3.7,1.9l-4.1-6,1.5-.8,1.7-1,2.1-1.4-1.7-2-1.2-1.7-1-1.7Z"
                  transform="translate(-1 -1)" fill="#ffffeb"/>
            <path d="M228.6,83.2l-.8,5a15.2,15.2,0,0,1-3.2.3l-2.4-.2-1.9-.5.6-6.2Zm2.3,10.9,3.2,4a12.7,12.7,0,0,1-2.5,3.6,22,22,0,0,1-2.9,2.5,16.3,16.3,0,0,1-3.5,1.8l-4-5.6Zm-.2-17.5a19,19,0,0,1-3.1-1.3L225,73.6a9.6,9.6,0,0,1-2.4-2.7l2.8-4.4,2.8,1.6,2.7,1.4,3,1.3Zm11.5.8,3.8-.2h6.2q0-.9,0-3.3t0-5.6q.1-3.1.3-6.3a50.4,50.4,0,0,1,.5-5.4h4.7a42.7,42.7,0,0,1,.6,4.9q.2,2.6.3,5.3t.1,5.4q0,2.7,0,5.1h9.9q.9,6.6,1.2,12.9t.3,11.6q0,6-.4,11.4a20.9,20.9,0,0,1-4.9.5l-3.9-.3-3.5-.7v-4h5.9q-.1-4.1-.1-8.6t-.1-8.8q-.1-4.9-.2-10.1h-8.3l-6.7.3L248,87l10.8.3v4.5H248q-.1,1.4-.1,2.6a17.5,17.5,0,0,1-.1,2.3l11.7.3v4.4H247.4q-.2,1.7-.5,2.9l-.4,2-.4,1.6-6.6-.6q.2-2,.6-6l.8-8.4.8-8.6Q242.1,79.9,242.3,77.5Zm1.3-4.1a14.1,14.1,0,0,1-1.7-2.2,20.4,20.4,0,0,1-1.3-2.5,13.9,13.9,0,0,1-.9-3.2l4.2-2.2,1.4,2.2,1.6,2.2a22.6,22.6,0,0,0,2.1,2.3ZM262.4,69a20.2,20.2,0,0,0,2.8-2.1l2.3-2.2a10.6,10.6,0,0,0,1.8-2.6l4.5,2.9a17,17,0,0,1-1.4,3.6,17.4,17.4,0,0,1-2,2.8,6.4,6.4,0,0,1-3,2Z"
                  transform="translate(-1 -1)" fill="#ffffeb"/>
            <path d="M290.4,80.7l10.7.8,9.1.6,8.7.5a20.9,20.9,0,0,1-2,7.8,17.6,17.6,0,0,1-1.8,3.1l-4.5-1.2,1.8-6.1h-6.7l3.2,23-3.3,1-3.5.6a24.7,24.7,0,0,1-4.3.2l-1.2-4.2,2.7-.4,1.9-.3,1.1-.3q-.3-.9-.9-3.3t-1.2-5.3q-.6-2.9-.9-5.9a24.8,24.8,0,0,1-.1-5.3h-4.5l-2.9-.2-2.1-.2ZM306.5,65l-5-.6-4.9-.9a42.1,42.1,0,0,1-5.1-1.3l2.2-5.8,7.6,2,6.6,1.8,5.9,1.8a37.4,37.4,0,0,1-1.6,4.6,24.9,24.9,0,0,1-2.1,3.8,11,11,0,0,1-3.1,3.2l2.8.9a5.6,5.6,0,0,0,1.9.3L310,78.3a60.3,60.3,0,0,1-6.2-.4,32.1,32.1,0,0,1-4.8-1.1,6.1,6.1,0,0,1-3.3-2.2l1.6-5.3,1.7.8,1.8.8,2.3,1,.8-1.5,1.1-2.1,1-2.1A6.2,6.2,0,0,0,306.5,65ZM326,73.9l2-1.9,1.7-1.9a13.4,13.4,0,0,0,1.5-2.1l-4.7-.6-3.5-.8-2.9-.9,1.1-3.2,9,.4h7.1l6.3-.4-.2,5.5-5.9.3h-5l2.5,1.5a17.8,17.8,0,0,1-.6,2.2,17.4,17.4,0,0,1-.9,2.1,13.4,13.4,0,0,1-1.6,2.3h8.5l3.9.2q.1,2.7.2,5.9t.1,5.9v6.3h-7.1a5.2,5.2,0,0,1-.1-1.1q0-.8.1-1.8V89.7q.1-1.3.2-2.5l.6-6.5-5-.2h-7.3L325.6,94h-5a12.7,12.7,0,0,1-.2-1.4q-.1-1.1-.2-2.7t-.2-3.5q-.1-1.9-.1-3.8t.1-3.6a20.4,20.4,0,0,1,.3-2.8l3.5-.2h5Zm-5.9,31.9a35.2,35.2,0,0,0,2.8-2.7,26.8,26.8,0,0,0,3.1-4,33.3,33.3,0,0,0,2.8-5.4,35.1,35.1,0,0,0,2-6.9l4.3.7A35.9,35.9,0,0,1,334,97a37.3,37.3,0,0,1-1.3,3.8,17,17,0,0,1-1.9,3.6,15.5,15.5,0,0,1-2.8,3.1,11.8,11.8,0,0,1-3.8,2.1Zm25.5-.9-3.1,5.2a14.2,14.2,0,0,1-3.6-2,15.5,15.5,0,0,1-2.6-2.4,16.7,16.7,0,0,1-2.1-2.9l2-2.5Z"
                  transform="translate(-1 -1)" fill="#ffffeb"/>
            <path d="M378.3,95.6l-3.7.4-4.5.2h-6.1l-1.2-5.1,1.9-1.7,4.4-4.4h-4.2a35.4,35.4,0,0,1-4.7-.5l-.4-4.8a74,74,0,0,0,5.5-6.8,65.8,65.8,0,0,0,5.3-8.6l6.2,3.7a46,46,0,0,1-3.1,4.8,42.1,42.1,0,0,1-3.5,4,18.1,18.1,0,0,1-4.5,3.3l2.7.2,2.4.2,2.3.2,2.3-2.9,1.9-2.9,5,4.2a52.5,52.5,0,0,1-3.6,5,33.1,33.1,0,0,1-4,4,17.7,17.7,0,0,1-5.1,3.1l3.2-.2h5.7Zm-14.5,7,4.7-.7,4.6-1,5.2-1.5,1.4,4.9a21,21,0,0,1-5.1,1.7,38.7,38.7,0,0,1-5,.7,33.9,33.9,0,0,1-5.4.1Zm32.3-40.1c0,.6-.1,1.3-.2,2.1s-.2,1.4-.4,2.3a15.6,15.6,0,0,1-.8,2.7h5.5l6.7.2,6.2.3,4,.5q.4,8.3.6,15.6.1,3.2,0,6.4t-.2,6.2q-.1,3-.4,5.4a22.2,22.2,0,0,1-.8,4,16.5,16.5,0,0,1-3.5.9l-3.6.4a15.4,15.4,0,0,1-3.9-.4l-1.2-5.1,2.9-.4,2.3-.3,1.7-.2-.9-28L392.4,74l-1.7,2.2a19.7,19.7,0,0,1-2.2,2.1l-5.9-4.5a46.1,46.1,0,0,0,3.2-3.5,42.1,42.1,0,0,0,3-4,34.8,34.8,0,0,0,2.9-5.2Zm-4.2,22.7,3.2,1.8,3.2,1.8,3.4,2-3.9,6a17.1,17.1,0,0,1-3.5-2,20.7,20.7,0,0,1-2.9-2.5,11.4,11.4,0,0,1-2.3-3.5Z"
                  transform="translate(-1 -1)" fill="#ffffeb"/>
        </g>
    </g>
</svg>