<svg id="847dbcbf-828b-4b8f-a750-7992e0b0f737" data-name="5fb897a2-c6e8-48bf-bfad-5b7120169b08" xmlns="http://www.w3.org/2000/svg" width="51.5" height="50.5" viewBox="0 0 51.5 50.5">
  <title>question</title>
  <path d="M41.1,1.2H11.9A10.2,10.2,0,0,0,1.8,11.4V33.8A10.2,10.2,0,0,0,11.9,43.9h8.6c.8,0,1.5,1.1,2.4,2.6s2,3.2,3.5,3.2,2.8-2.1,3.7-3.2,2-2.6,2.6-2.6h8.3A10.2,10.2,0,0,0,51.3,33.8V11.4A10.2,10.2,0,0,0,41.1,1.2ZM29.4,33.8a2.9,2.9,0,0,1-5.8,0v-1a2.9,2.9,0,0,1,5.8,0Zm0-10.7a2.9,2.9,0,0,1-5.8,0V11.4a2.9,2.9,0,0,1,5.8,0Z" transform="translate(-0.8 -0.2)" fill="#865832"/>
  <g opacity="0.3">
    <path d="M41.1,1.2A10.2,10.2,0,0,1,51.3,11.4V33.8A10.2,10.2,0,0,1,41.1,43.9H32.8c-.6,0-1.7,1.6-2.6,2.6s-2.5,3.2-3.7,3.2S24,48.1,23,46.6s-1.7-2.6-2.4-2.6H11.9A10.2,10.2,0,0,1,1.8,33.8V11.4A10.2,10.2,0,0,1,11.9,1.2H41.1M26.5,26a2.9,2.9,0,0,0,2.9-2.9V11.4a2.9,2.9,0,1,0-5.8,0V23.1A2.9,2.9,0,0,0,26.5,26m0,10.7a2.9,2.9,0,0,0,2.9-2.9v-1a2.9,2.9,0,1,0-5.8,0v1a2.9,2.9,0,0,0,2.9,2.9M41.1.2H11.9A11.2,11.2,0,0,0,.8,11.4V33.8A11.2,11.2,0,0,0,11.9,44.9h8.6a9.2,9.2,0,0,1,1.6,2.2c1,1.6,2.3,3.7,4.3,3.7s2.8-1.6,4.3-3.3l.2-.2.4-.4A13.4,13.4,0,0,1,33,44.9h8.1A11.2,11.2,0,0,0,52.3,33.8V11.4A11.2,11.2,0,0,0,41.1.2ZM26.5,25a1.9,1.9,0,0,1-1.9-1.9V11.4a1.9,1.9,0,1,1,3.8,0V23.1A1.9,1.9,0,0,1,26.5,25Zm0,10.7a1.9,1.9,0,0,1-1.9-1.9v-1a1.9,1.9,0,1,1,3.8,0v1a1.9,1.9,0,0,1-1.9,1.9Z" transform="translate(-0.8 -0.2)" fill="#fff"/>
  </g>
</svg>
