<svg xmlns="http://www.w3.org/2000/svg" viewBox="0 0 190 232"><title>simCard</title><path d="M62.5,1.4,180.9,32.6a12.2,12.2,0,0,1,8.7,15L145.9,213.2a12.2,12.2,0,0,1-15,8.7h0L12.6,190.8a12.2,12.2,0,0,1-8.7-15L47.6,10.1A12.2,12.2,0,0,1,62.5,1.4Z" transform="translate(0 -1)" fill="#4875b9"/><path d="M37.1,22.3,158.4,38.9a12.2,12.2,0,0,1,10.5,13.8h0L145.6,222.4a12.2,12.2,0,0,1-13.8,10.5h0L10.6,216.3A12.2,12.2,0,0,1,.1,202.5h0L23.4,32.7A12.2,12.2,0,0,1,37.1,22.3Z" transform="translate(0 -1)" fill="#73abff"/><path d="M90.7,63.6,88.2,87.4l22.6,3a19.5,19.5,0,0,0,5.9,0,8.9,8.9,0,0,0,4-1.7,7.9,7.9,0,0,0,2.4-3.2,20.6,20.6,0,0,0,1.3-4.5l2.1-12.6ZM73.5,46.9,72.2,56l-6.5-.5-1.1,7.3,6.5,1L69.7,74.2l-7.6,3.8,2.7,7.6,3.6-2L65.2,106l10.1,1.3,2.2-15.7,3.1,2,4.1-6.6-6.1-3.5,2.6-18.2,5.3.8,1.6-8.7-5.6-.5,1.2-8.2ZM98.7,93,85.9,91.4l-1.2,6.2,10,1.6-10.4,5.7,7.7,6.4,11.2-7.5,8.4,10.2,9.2-3.9-7.9-8,9.7,1.6.8-7.8-12.7-1.4.4-2.4-12-1.5Zm6.1-29.1.4-3,8.4,1.2-.4,2.9,10.2,1.5.4-2.9,4.6.6.8-7-4.5-.5.4-2.8-10.4-1.2-.3,2.7-8.3-1,.5-3L96.3,50l-.4,3.2L91,52.6l-.5,6.2,4.7.7-.3,3.1Zm9.3,12.3L100.2,74l.3-2.7,14.1,1.7ZM99.3,82.1l.3-2.4,13.7,2-.4,2.5ZM70.1,138.3l1.5-9-10.7-1.6-1.5,9.6-5.1-.5-.9,7.5,4.9.7-2.2,15-5.1-.6-.8,8.6,4.7.4-1.3,9.2-4.7-.4-.8,7.3,14.7,1.5,2.6-16.6,5.5.5,1.1-7.8-5.4-.6,2.3-14.7,4.9.7,1.5-8.5ZM98,161.2,86.3,189.8l9.2,3L101,179l.5,12.4,8.2.7-1-29.3,3.8-28.6-10.9-1ZM80.6,131.3l-8.2,49.7,15.1,2.5,1-8.9-4.5-.3L90,133.3Zm8.1,25.2,7.2,1,1.7-11.7-7.3-1.1Z" transform="translate(0 -1)" fill="#fff"/></svg>