<svg id="729b3757-6f75-4139-8975-832dd8d04bb1" data-name="组 5" xmlns="http://www.w3.org/2000/svg" width="88" height="88" viewBox="0 0 88 88">
  <title>up</title>
  <rect id="bcce307b-9a85-44ea-a94c-8202983a1b55" data-name="颜色填充 18" width="88" height="88" rx="20" ry="20" fill-opacity="0.4"/>
  <path id="f2e80224-f765-4e8b-ba9b-24582e217556" data-name="颜色填充 19 拷贝" d="M57.41,61.6,44.48,49.48,31.56,61.6c-3.1,3.15-9.12,1.15-12.22-2s-3.1-10.25,0-13.4L37.87,27.38c3.1-3.15,11.12-3.15,14.22,0L69.63,45.2c3.1,3.15,3.1,11.25,0,14.4S60.51,64.75,57.41,61.6Z"/>
  <path id="96430ad3-6e85-4762-a4ad-a67c92b2c244" data-name="颜色填充 19 拷贝 copy" d="M56.44,55.62,44.52,43.5,32.59,55.62a7.85,7.85,0,0,1-11.1.13l-.13-.13a8.16,8.16,0,0,1,0-11.41L38.9,26.4A7.85,7.85,0,0,1,50,26.27l.13.13L67.67,44.22a8.16,8.16,0,0,1,0,11.41,7.85,7.85,0,0,1-11.1.13Z" fill="#ffe0a7" stroke="#000" stroke-width="2"/>
</svg>
