<svg id="8a732741-8513-418f-bd41-41fa5df4da1a" data-name="图层 1" xmlns="http://www.w3.org/2000/svg" xmlns:xlink="http://www.w3.org/1999/xlink" width="100" height="100" viewBox="0 0 100 100">

    <radialGradient id="a934fe93-b236-4d46-a732-b48e1117f5e4" data-name="未命名的渐变" cx="50" cy="53" r="46" gradientTransform="matrix(1, 0, 0, -1, 0, 102)" gradientUnits="userSpaceOnUse">
      <stop offset="0" stop-color="#25bac7"/>
      <stop offset="0.9" stop-color="#25bac7"/>
      <stop offset="1" stop-color="#1e8eb7"/>
    </radialGradient>
    <linearGradient id="7a10ca50-6cc2-4e9a-8201-f9df35a30836" data-name="未命名的渐变 2" x1="50" y1="15" x2="50" y2="99" gradientTransform="matrix(1, 0, 0, -1, 0, 102)" gradientUnits="userSpaceOnUse">
      <stop offset="0" stop-color="#7ddaf3"/>
      <stop offset="0.03" stop-color="#7ddaf3"/>
      <stop offset="0.91" stop-color="#e3f3f2"/>
      <stop offset="1" stop-color="#e3f3f2"/>
    </linearGradient>
  <title>change_machine</title>
  <circle cx="50" cy="50" r="50" fill="#7ddaf3" fill-opacity="0.5"/>
  <circle id="806dba79-7444-4dc9-b31a-9864eb00ae4e" data-name="Ellipse 2 copy" cx="50" cy="50" r="47" fill="#dceff2"/>
  <circle id="e8b61141-2c45-4f68-84fc-887bbc10e0ed" data-name="Ellipse 2 copy 2" cx="50" cy="49" r="46" fill="url(#a934fe93-b236-4d46-a732-b48e1117f5e4)"/>
  <circle id="9ae306b0-1b59-41e5-a633-14b250dd9f54" data-name="Ellipse 2 copy 3" cx="50" cy="45" r="42" fill="url(#7a10ca50-6cc2-4e9a-8201-f9df35a30836)"/>
  <path id="d32fb410-5011-4521-8ff8-c9c183b9907d" data-name="Ellipse 2 copy 5" d="M50,7C27.3,7,8.8,24.3,8,47c0-.5,0-1,0-1.5C8,22,26.8,3,50,3S92,22,92,45.5c0,.5,0,1,0,1.5C91.2,24.3,72.7,7,50,7Z" fill="#fff" fill-opacity="0.8"/>
  <path id="a5d1c118-b949-448b-9073-b8b3e1f66dfd" data-name="换一台" d="M38,43.5H36l1.3-1.1a5.5,5.5,0,0,0,1-1.5l-.2-1.8-1.6-.2H33.2l.4-.6.3-.5.3-.5L32,35.6a13,13,0,0,1-1.2,2l-1.3,1.6L28,40.8l1.2,1.1,1.4-.6,1.2-.9H36l-1.1.7-1.2.7-1.4.7.4.6H27q0,.9,0,1.8t.1,1.6a12.9,12.9,0,0,0,.2,1.6H25.9l-.3,1.4,1.4.2,3.6.5a18.7,18.7,0,0,1-1.8,2.9,16.9,16.9,0,0,1-1.9,2.1l1.9,1.6a8.9,8.9,0,0,0,2.8-2.6,13.2,13.2,0,0,0,1.8-3.7l4.1.2,4.2-.2V48.7H39.9q0-.6,0-1.3t0-1.4-.1-1.3-.1-1.2ZM19.1,50.1h.6l1.5-.3.3,1.6.2.9-.3.2h-.6l-.8.2.3,1.7h1.3L23,54l1.3-.5-.5-4.3,1-.3.9-.4-.3-1.9h-.5l-1.2.3-.3-2.8,1.1-.2,1-.3V41.9H23l-.3-2.7-2.8.4a9.4,9.4,0,0,0,0,1.1q0,.7.2,1.6l-2.3.2.5,1.9h2.1l.3,1.6.3,1.6-1.2.4-1,.3Zm15.2,3.9A7.6,7.6,0,0,0,36,56a6.9,6.9,0,0,0,1.7,1,5.1,5.1,0,0,0,1.7.4l.9-2.4-1.3-.6-1.3-.6-1.1-.6-.8-.6ZM36,45.2h1.5q0,.6,0,1.7t.1,2H34q.1-.8.2-1.7t.1-1.8H36Zm-6.6,3.5q0-.7,0-1.7t0-1.7h3.1a13.1,13.1,0,0,1-.4,1.7l-.6,1.7Zm14.2-1.9,6.7.8,2.9.3,3,.2h2.8l2.5-.2V45.5l-6.6-.3h-11Zm25,11.1,1.6.2h3.4l3.9-.3a2.5,2.5,0,0,0,.1-.6q0-.4,0-1T77.5,55V53.6Q77.2,52,77,50H69.8a1.3,1.3,0,0,1,0-.3H67.5a1.1,1.1,0,0,1,0,.4v.9c0,.4,0,.8-.1,1.2s-.1.9-.1,1.4-.1,2.4-.2,3.8l1.4.3Zm2.7-22.4-1.7,3.2-1.8,2.9a18.5,18.5,0,0,1-2.2,2.7l.2,2.3h.9l2.2.2H72a19.7,19.7,0,0,0,3.5-.4V45H71.6l-1.7-.2-1.4-.2a17.1,17.1,0,0,0,1.9-2,24.5,24.5,0,0,0,1.7-2.4,17.7,17.7,0,0,0,1.6-3.3h0Zm3.4,17.7q0,.8,0,1.5t0,1.6H70.1q0-.4,0-.9c0-.3,0-.7,0-1.1s0-.8,0-1.1V51.8h4.7v1.4Zm1.6-11.5-1.6.8a18.6,18.6,0,0,0,.6,2,11,11,0,0,0,.8,1.6,4.6,4.6,0,0,0,1.1,1.3l2.2-1.6Z" fill="#1e8eb7"/>
</svg>
