<svg id="4e19e666-eedf-4e07-9b8e-a1a324e5c2b4" data-name="图层 1" xmlns="http://www.w3.org/2000/svg" width="70" height="70" viewBox="0 0 70 70">
  <title>chat</title>
  <circle id="a30f7198-a23e-4a8f-a36a-b18a7e9e698c" data-name="渐变填充 8 拷贝" cx="35" cy="35" r="35" fill="#603000" fill-opacity="0.5"/>
  <path id="f5f29ff6-1f25-487b-8f33-73206436f1aa" data-name="颜色填充 6 拷贝 3" d="M35,49.31c-.84,0-1.67-.05-2.48-.13C29,51.28,22.59,56,22.59,56V46C17.39,42.85,14,37.83,14,32.16,14,22.68,23.4,15,35,15s21,7.68,21,17.16S46.6,49.31,35,49.31Zm-10.5-20a2.86,2.86,0,1,0,2.88,2.86,2.86,2.86,0,0,0-2.87-2.86Zm10.5,0a2.86,2.86,0,1,0,2.88,2.86A2.86,2.86,0,0,0,35,29.31Zm10.5,0a2.86,2.86,0,1,0,2.88,2.86,2.86,2.86,0,0,0-2.87-2.86Z" fill="#fff" stroke="#c69732" stroke-width="2"/>
</svg>
