<svg id="00448b12-715a-46ed-a26f-fbe01a02721c" data-name="图层 1" xmlns="http://www.w3.org/2000/svg" width="138" height="138" viewBox="0 0 138 138">
  <title>claw</title>
  <rect id="6c1bd7bc-5e63-4c8e-bac6-24bb44c225d8" data-name="颜色填充 18 拷贝 2" width="138" height="138" rx="20" ry="20" fill-opacity="0.4"/>
  <g id="d0b57bdf-e713-41ed-998b-9546ae6b4969" data-name="组 6">
    <path id="e6aeb827-77b7-4a6b-9671-bf2e0d482843" data-name="颜色填充 21 copy" d="M104,99.66c-2.55,1.63-5.94,2.2-9.06-2.4-.4-9.33-3.33-16.86-8.94-21.42V79a4,4,0,0,1-4,4H78V96a7,7,0,0,1-14,0V83H60a4,4,0,0,1-4-4V76.47c-4.65,4.67-6.71,12.07-7,21.14-4.5,6.48-9.54,2.4-11.81-.1a26.83,26.83,0,0,1-1.23-8C36,77.34,44.18,66.85,56,62V59a4,4,0,0,1,4-4h4V42a7,7,0,0,1,14,0V55h4a4,4,0,0,1,4,4v3c11.82,4.9,20,15.38,20,27.54A26.92,26.92,0,0,1,104,99.66Z" stroke="#000" stroke-width="3"/>
    <path id="0899cea3-3749-46bf-ba3a-212a8aa03553" data-name="颜色填充 20" d="M106,87.5a26.92,26.92,0,0,1-2,10.16c-2.55,1.63-5.94,2.2-9.06-2.4-.56-13.06-6-22.62-16.94-25.4V94a7,7,0,0,1-14,0V69.9C53.59,72.77,49.4,82.44,49,95.61c-4.5,6.48-9.54,2.4-11.81-.1a26.83,26.83,0,0,1-1.23-8c0-14.75,12-27.06,28-29.89V40a7,7,0,0,1,14,0V57.61C94,60.44,106,72.75,106,87.5Z" fill="#ffe0a7" stroke="#000" stroke-width="2"/>
    <rect id="05793ccf-dc1f-42d1-ba5a-a26761437b7a" data-name="颜色填充 19" x="56" y="53" width="30" height="28" rx="4" ry="4" fill="#f6c855" stroke="#000" stroke-width="2"/>
    <circle id="097c2c5c-62a1-4273-9f12-051342392c21" data-name="颜色填充 21" cx="71" cy="67" r="6" fill="#c88436" stroke="#000" stroke-width="3"/>
  </g>
</svg>
