<svg id="9fb4447c-2f16-4c51-aba9-462ff46f695a" data-name="Group 2 copy" xmlns="http://www.w3.org/2000/svg" width="94" height="100" viewBox="0 0 94 100">
  <title>icon_wawa_detail</title>
  <path id="e10c4b0e-7318-4a1d-8cef-c554ad6c2bb9" data-name="Rounded Rectangle 1" d="M84,100H10A10,10,0,0,1,0,90V46a10,10,0,0,1,.1-1A47,47,0,0,1,94,45c0,.3.1.7.1,1V90a10,10,0,0,1-10,10Z" transform="translate(0 0)" fill-opacity="0.3"/>
  <g id="115da0e7-4904-40bd-b578-a3e6289a54fd" data-name="物品详情" style="isolation: isolate">
    <g style="isolation: isolate">
      <path d="M7.3,84.1A16.3,16.3,0,0,0,11.4,83V78.5H9.6a22.2,22.2,0,0,0-.5,3.4,5.6,5.6,0,0,0-2-.4,16.9,16.9,0,0,0,1.3-6.8,7.7,7.7,0,0,0,2.2.5,2.4,2.4,0,0,0-.6,1.2l-.2.8h1.7V73.5a7.1,7.1,0,0,0-.1-1.2l1.2.2h.7a2.2,2.2,0,0,0-.3,1.3v3.5h1.7a4.1,4.1,0,0,0-.1.8,4.8,4.8,0,0,0,.1.6H12.9v4l2.1-1.1a6.9,6.9,0,0,0,.3,1.7l-2.4.9v5.3q0,.5.1,2H11.3q.1-1.1.1-1.9V84.5a15.8,15.8,0,0,0-3.3,1.7A13.6,13.6,0,0,0,7.3,84.1Zm6.5-4.3a15.1,15.1,0,0,0,2.2-3.5,15,15,0,0,0,1.3-3.9l2.5.8a3.2,3.2,0,0,0-1.2,1.2l-.6,1.1-.4.7h7.9a12.7,12.7,0,0,0-.2,1.6l-.6,7.2q-.3,3.8-.9,4.6t-3.1,1.2h-.3a3.1,3.1,0,0,0-1-2.1H21q1.1,0,1.4-.8.8-2.4,1.2-9.8v-.4H22.5l-.3,1.7a22.3,22.3,0,0,1-2.1,7.1A10.9,10.9,0,0,1,16,90.5a5.4,5.4,0,0,0-1.9-1.1q5.7-2,6.8-11.7H19.6v.6a19.8,19.8,0,0,1-1.3,4.6,18,18,0,0,1-2.5,3.8l-1.8-.9a9.1,9.1,0,0,0,2.7-3.1,18.8,18.8,0,0,0,1.5-5.1H17a28.3,28.3,0,0,1-1.6,3A4.2,4.2,0,0,0,13.7,79.8Z" transform="translate(0 0)" fill="#fff"/>
      <path d="M28.3,91.4V84.2q0-.8-.1-2.3h7.2v9.3H33.8q0-.7,0-1.2v-.6H29.9v.8q0,.4,0,1.2H28.3ZM29.9,88h3.9V83.4H29.9Zm1-7.7V75.1q0-.4,0-1.1v-.7H41.7v.9c0,.5,0,.8,0,1v3.2c0,.2,0,.5,0,1v.9H30.9Zm1.7-1.6h7.5V74.9H32.6ZM37,91.3V81.8h7.5v7.5q0,.6.1,1.9H42.8V89.4H38.6v.7q0,.5,0,1.2H37ZM38.6,88h4.2V83.4H38.6Z" transform="translate(0 0)" fill="#fff"/>
      <path d="M47.3,80a8.5,8.5,0,0,0,.1-1q0-.3,0-.7h4.3a11.1,11.1,0,0,0-.1,1.3v7L53,84.8a6.4,6.4,0,0,0,.6,2l-1.8,1.8a17.3,17.3,0,0,0-1.6,2.1A11.5,11.5,0,0,0,49,88.9a2.9,2.9,0,0,0,1-2.2V79.9H47.3Zm1.3-6.2a5.3,5.3,0,0,0,1.6-.9q1.1,1.7,2.4,3.3L51,77A11.9,11.9,0,0,0,48.6,73.8Zm5,2.2h6.3l.5-1.4a20.6,20.6,0,0,0,.7-2.3,8,8,0,0,0,2.1.8,8.4,8.4,0,0,0-1.7,2.3l-.3.7h3.7a5.7,5.7,0,0,0-.1.8,5.8,5.8,0,0,0,.1.8h-5v2.9h4.4c0,.4-.1.7-.1.9s0,.5,0,.8H59.8v2.6h5.4a8.2,8.2,0,0,0-.1.9,7.9,7.9,0,0,0,.1.9H59.8V90a9.5,9.5,0,0,0,.1,1.3H58.1V86.2H53.8a8.8,8.8,0,0,0,.1-.9,8.5,8.5,0,0,0-.1-.9h4.4V82.1H54a6.2,6.2,0,0,0,.1-.9,6.6,6.6,0,0,0-.1-.9h4.2V77.5H53.6a4.9,4.9,0,0,0,.1-.9A4.7,4.7,0,0,0,53.6,76ZM57,72.5a22.1,22.1,0,0,0,1.3,2.9l-1.6.4a8.3,8.3,0,0,0-1.2-2.8Z" transform="translate(0 0)" fill="#fff"/>
      <path d="M67,81.8a12.7,12.7,0,0,0,.4-2.4l.2-2.3v-.4l1.7.2a1.7,1.7,0,0,0-.2.6L69,79.1q-.2,1.9-.3,2.7v.2Zm2.9,9.1q.1-1.3.1-3.2V74.2a8.4,8.4,0,0,0-.1-1.6l2.3.3q-.6.4-.6,1.8V87.5q0,1.6.1,3.4H69.8Zm1.7-14.2,1.4-.7.6,1.1.5.9.3.4-1.6.7v-.2A9.9,9.9,0,0,0,71.5,76.8Zm1.9,3.9q0-.5,0-.8c0-.2,0-.4,0-.8h4.8V78H74.4a4.1,4.1,0,0,0,.1-.6,4.4,4.4,0,0,0-.1-.8h3.9V75.6H73.8q0-.5,0-.7c0-.2,0-.4,0-.7h4.5V73a5.1,5.1,0,0,0-.1-.8l1.7.2a1.2,1.2,0,0,0-.2.7v1.3h5.1q0,.5,0,.7t0,.7H79.7v1.2H84a6.4,6.4,0,0,0,0,.7,6.6,6.6,0,0,0,.1.8H79.7v1.3h5.6q0,.4,0,.7t.1.8H73.4Zm1,10.3a17.2,17.2,0,0,0,.1-1.7V83.3a15.9,15.9,0,0,0-.1-1.6h9.2q-.1,1-.1,1.6v6a2.6,2.6,0,0,1-.4,1.7,3.1,3.1,0,0,1-1.8.3h-.6a3.5,3.5,0,0,0-.8-1.9l1.3.2h.7a1.4,1.4,0,0,0,.1-.8v-1H76v1.8a11.9,11.9,0,0,0,.1,1.5H74.4ZM76,84.3h5.9V83H76Zm0,2.4h5.9V85.4H76Z" transform="translate(0 0)" fill="#fff"/>
    </g>
  </g>
  <g>
    <path d="M66.8,39.3h-.4a18.1,18.1,0,0,1,1.3,6.9C67.7,56.6,58.9,65,48,65S28.4,56.6,28.4,46.2a18.1,18.1,0,0,1,1.4-6.9h-.5C21.9,39.3,16,33.7,16,26.7S21.9,14,29.2,14s13.2,5.7,13.2,12.7a12.2,12.2,0,0,1-.1,1.5,20.6,20.6,0,0,1,11.3,0,12.2,12.2,0,0,1-.1-1.5c0-7,5.9-12.7,13.2-12.7S80,19.7,80,26.7,74.1,39.3,66.8,39.3Z" transform="translate(0 0)" fill="#efd77f"/>
    <path id="1a36e919-9204-4863-a3e0-43a7cca268a0" data-name="Ellipse 2 copy" d="M65.2,38.8h-.4A13.9,13.9,0,0,1,66,44.5C66,53.1,58.2,60,48.5,60S30,53.1,30,44.5a13.9,13.9,0,0,1,1.2-5.7h-.5C24.3,38.8,19,34.2,19,28.4S24.3,18,30.8,18s11.8,4.7,11.8,10.4a9.3,9.3,0,0,1-.1,1.2,28.1,28.1,0,0,1,6.1-.7,19.6,19.6,0,0,1,5,.6,9.3,9.3,0,0,1-.1-1.2c0-5.8,6.3-10.4,12.8-10.4S77,22.7,77,28.4,71.7,38.8,65.2,38.8Z" transform="translate(0 0)" fill="#805a39" fill-opacity="0.5"/>
    <circle cx="37.5" cy="42.5" r="3.5" fill="#fff"/>
    <circle id="7913d5bb-ce40-4df2-977c-d6bd33bfca8c" data-name="Ellipse 3 copy" cx="48.5" cy="42.5" r="3.5" fill="#fff"/>
    <circle id="21f514a4-d92f-4c9e-a454-ca7bd8217eb0" data-name="Ellipse 3 copy 2" cx="59.5" cy="42.5" r="3.5" fill="#fff"/>
  </g>
</svg>
