<svg id="6f8a8295-ffcd-47a7-ab56-7384aa2feb73" data-name="图层 1" xmlns="http://www.w3.org/2000/svg" width="456.01" height="96" viewBox="0 0 456.01 96"><title>newpay_title</title><g id="c976f759-f694-49eb-a353-5d596af338ad" data-name="Group 1 copy"><path id="56115f3e-78c7-4485-bbfa-92360588e552" data-name="圆角矩形 7" d="M4.43,12.26H452.57c2.83,0,5.38,2.44,4.09,5.11L438.24,48c9.11,14.92,18.42,29.62,18.42,29.62,0,3.43-1.27,5.11-4.09,5.11H4.43c-2.83,0-4.31-3.15-2.88-6.13,0,0,8.58-14.5,18.87-28.49A303.82,303.82,0,0,1,1.55,18.38C.1,15.42,1.61,12.26,4.43,12.26Z" transform="translate(-0.99 0)" fill="#d74f45"/><path id="ccb3fb60-c25e-4a7b-b6da-8621720a65da" data-name="圆角矩形 7 拷贝" d="M47.58,0h362a5.11,5.11,0,0,1,5.11,5.11S405.48,26.32,395.3,48c9.86,21.19,19.43,42.89,19.43,42.89A5.11,5.11,0,0,1,409.62,96h-362c-4.69,0-6.56-2.62-5.11-5.11,0,0,10.81-20.81,21.09-42.72C53.62,27.12,42.47,5.11,42.46,5.11,41.33,2.77,43,0,47.58,0Z" transform="translate(-0.99 0)" fill="#e96352"/><path id="c1bbcbc4-5d86-42f1-939a-eb5710c7a271" data-name="多边形 1" d="M95.65,54l-5.59-3-5.54,3.11,1.14-6.24L81,43.57l6.3-.85L89.94,37l2.75,5.72,6.31.74-4.6,4.38Z" transform="translate(-0.99 0)" fill="#fff"/><path id="a7dd7e0d-e0d0-4925-b21d-4d8b20a6a19b" data-name="多边形 1 拷贝" d="M371.78,54l-5.6-3-5.54,3.11,1.14-6.24-4.67-4.3,6.3-.85L366.07,37l2.75,5.72,6.31.74-4.6,4.38Z" transform="translate(-0.99 0)" fill="#fff"/></g><path id="932087ac-94b8-4ef3-b3cc-941bcb58df39" data-name="首充有大礼" d="M142.29,30.73a64.88,64.88,0,0,0,8.35-5.19L142.2,22a50.27,50.27,0,0,1-5.8,8.72h-6.87l3.62-3.57a54.56,54.56,0,0,0-10.45-4l-2.51,2.6a33.67,33.67,0,0,1,5.2,5h-12l.83,3.39h16.66a25.76,25.76,0,0,1-1.76,4.36h-3.71V37.36l-7.38-.83V66.3l7.38-.93V63h18.94v3.15l7.71-1V42.51l2.09-2-6.31-4.82-3.25,2.83H134a35.93,35.93,0,0,0,5.62-4.36h15.78l1.95-1.95-4.64-4.22-2.88,2.78h-7.57Zm-16.85,25h18.94v3.9H125.44Zm0-6.77h18.94v3.39H125.44V49Zm0-7h18.94v3.53H125.44V42Zm58-11.92,3.11-2.27a45.12,45.12,0,0,0-6.64-5.1l-3.62,2.6a44.27,44.27,0,0,1,3.3,4.78h-18.8l1,3.8h10.68A30.7,30.7,0,0,1,164.9,43l-2.23.09,2.65,7.1q2.69-.37,5.34-.79-.14,8.21-9.42,13.31l2,2.83q14.81-5,14.81-15.77V48.17q2.69-.46,5.38-1v13q.23,4.68,3.62,5.1h11.09q4.27,0,5.71-4.27a7.67,7.67,0,0,1-2.32-5.8,18.56,18.56,0,0,1,.19-2.41l-3.11-.46-1.58,5.8a1.22,1.22,0,0,1-1.2,1.25h-4.33q-.56,0-.56-1.07V45.62q1.49-.28,3.06-.65a28.53,28.53,0,0,1,1.49,3.66l6.73-4.31a25.67,25.67,0,0,0-2.83-3.8,49.41,49.41,0,0,0-5.85-5.8L189,37.18q1.39,1.76,2.6,3.62Q181,42,171.58,42.65a50.38,50.38,0,0,0,10.35-8.77H201.1l2.18-2.18-4.55-4.08-2.79,2.46H183.41Zm42.75-1.39q.84-1.81,1.72-3.8l-8.54-2.55q-.7,3.15-1.72,6.35H207.5l.84,3.43h8.08a82.65,82.65,0,0,1-9.89,18.42l3.06,1.72a47.36,47.36,0,0,0,4.92-5v18.6l7.84-.88v-10h16.11V57.4a1,1,0,0,1-1.07,1.11,39.7,39.7,0,0,1-5.85-.46l-.18,3.15q5.2,0,5.2,4.45h4.5q5.1,0,5.1-5.06V39.87l2.23-2-6.5-5-3.71,3.62H222.35V36q1-1.81,2.09-3.85h23.95l1.95-2-4.46-3.8-2.69,2.37h-17Zm-3.81,22.82v-4h16.11v4H222.35Zm0-7.47V39.91h16.11V44H222.35Zm55.51-11.5q0-.65,0-1.39V23.4l-8.17-1.11v9q0,.6,0,1.25H252.57l.88,3.57h16.06a29.74,29.74,0,0,1-3.95,13.22,47.36,47.36,0,0,1-12.62,14.28l1.9,2.74q11.46-5.7,17.22-14.52A28.57,28.57,0,0,0,276,44a39.14,39.14,0,0,0,4.22,9.74,49.77,49.77,0,0,0,10.45,12.75l6.17-7.14a59.76,59.76,0,0,1-10.16-8.49A38.84,38.84,0,0,1,278,36.11h16.66l2-2-4.41-4-2.74,2.46H277.86Zm44,28.2q.32,4.45,4.27,4.45h10.4a5.59,5.59,0,0,0,5.52-3.9,6.45,6.45,0,0,1-2.46-5.1,13.29,13.29,0,0,1,.28-2.69l-3.3-.83-1,4.27a1.62,1.62,0,0,1-1.7,1.53h-4.05q-1.07,0-1.07-1.53V24.56l-6.92-.93V60.74ZM301.3,36.62h8.22a54.33,54.33,0,0,1-9.7,14.29l2,2.13a34.86,34.86,0,0,0,3.39-2.13V65.52l7-.79V48.63A23.52,23.52,0,0,1,316,52.34l4.08-5.15a32.39,32.39,0,0,0-7.05-4,38.78,38.78,0,0,0,3.85-6.49L319,35.09l-5.1-4.36-4.08,2.55h-9.37Zm1-9.6a38.08,38.08,0,0,1,6.87,5.57l4.69-5.29a33.4,33.4,0,0,0-8.54-4Z" transform="translate(-0.99 0)" fill="#fff"/></svg>