<svg id="2e18d454-faa0-4086-a13f-58947f3a3781" data-name="图层 1" xmlns="http://www.w3.org/2000/svg" xmlns:xlink="http://www.w3.org/1999/xlink" width="560" height="208" viewBox="0 0 560 208">
    <!--<defs>-->
    <linearGradient id="c7ed8ba4-8ded-477d-8f99-3759be4e27a2" data-name="未命名的渐变 36" x1="0" y1="0" x2="0" y2="100%" gradientUnits="userSpaceOnUse">
        <stop offset="0" stop-color="#f0d88b"/>
        <stop offset="1" stop-color="#ffffff"/>
    </linearGradient>
    <!--</defs>-->
    <title>play_start_btn</title>
    <path d="M102,3H458a99,99,0,0,1,99,99v4a99,99,0,0,1-99,99H102A99,99,0,0,1,3,106v-4A99,99,0,0,1,102,3Z" fill="#ebebeb" stroke="#5d5d5d" stroke-width="6" opacity="0.5" style="isolation: isolate"/>
    <path d="M104,10H456a94,94,0,0,1,94,94h0a94,94,0,0,1-94,94H104a94,94,0,0,1-94-94h0A94,94,0,0,1,104,10Z" fill="#8c7c4f"/>
    <path d="M103.5,10h353A92.5,92.5,0,0,1,549,102.5h0A92.5,92.5,0,0,1,456.5,195h-353A92.5,92.5,0,0,1,11,102.5h0A92.5,92.5,0,0,1,103.5,10Z" fill="#a0956e"/>
    <rect x="11" y="10" width="538" height="182" rx="90" ry="90" fill="#b3ae8b"/>
    <path d="M106,3H456a89,89,0,0,1,89,89h0a89,89,0,0,1-89,89H106A89,89,0,0,1,17,92h0A89,89,0,0,1,106,3Z" fill="url(#c7ed8ba4-8ded-477d-8f99-3759be4e27a2)"/>
    <path d="M456,15H106A89,89,0,0,0,17.2,98c-.1-2-.2-4-.2-6A89,89,0,0,1,106,3H456a89,89,0,0,1,89,89c0,2-.1,4-.2,6A89,89,0,0,0,456,15Z" fill="#ffffe3"/>
    <g>


<path d="M137.1,98.6l5.8.2h22.8l18.9-.3.2,6.5a133,133,0,0,1-17.8,1q-8.6-.1-15.3-.8T137,103.3ZM143,68l5.3.2,5.8.2h11.7l13-.2.4,3.9a100.9,100.9,0,0,1-14,2.2,105,105,0,0,1-11.5.4A82.6,82.6,0,0,1,143,74Zm7.9,13.5,1.1,2.7,1.3,3,1.5,2.9a15.9,15.9,0,0,0,1.7,2.4l-4.7,2.9a15.5,15.5,0,0,1-3.1-2.5,20.5,20.5,0,0,1-2.4-3.5,15.2,15.2,0,0,1-1.7-5.1Zm7.5-14a18,18,0,0,1-2.1-3.6,21.2,21.2,0,0,1-1.4-3.8,14.2,14.2,0,0,1-.4-4.5l4.5-1a25.2,25.2,0,0,0,1.4,3l1.8,3.1a28.5,28.5,0,0,0,2.5,3.4Zm4.8,27.7a30.9,30.9,0,0,0,3.3-5.1l2.5-5.2a45.4,45.4,0,0,0,2.1-5.7l6.5,2.6a29.1,29.1,0,0,1-2.6,8,29.8,29.8,0,0,1-3.3,5,17.1,17.1,0,0,1-4,3.5Z" fill="#685317"/>
    <path d="M233.2,93.3l7.4,11.3-5.9,3.5-1.2-1.2a9.9,9.9,0,0,1-1.1-1.6l-2.9,1.2-4.2,1.3a39.8,39.8,0,0,1-5.1,1,25.7,25.7,0,0,1-5.5.1q.2-7.9.5-15.4l.2-6.7q.1-3.5.1-6.9t.1-6.6q0-3.2,0-5.8l7.2.2v4.8h7.4l-.4,4.5a17.5,17.5,0,0,1-4.3.4l-2.7-.4-.2,6.7h11q-.1-4.3-.1-8V66.9a14.1,14.1,0,0,1,.1-1.9,47.9,47.9,0,0,1-6.8,0l-6.2-.6-6.3-1.2.2-4.9,7,.4,7.3.3,6.9.2,5.9.2q-.2,7.2-.6,13.4l-.3,5.2q-.2,2.6-.4,4.8t-.4,3.9a15.3,15.3,0,0,1-.5,2.4l-5.5.2-5-.2-4-.4-2.7-.4q-.2,4.4-.4,8.1a46.2,46.2,0,0,1-.8,6l9.5-1.4-.7-2.3-.5-2-.4-1.9Zm25.9-2.8,1.9-.4,1.5-.3,1-.2q-.2-2.1-.6-4.2l-.5-3.6-.4-3.1h-4.6l-2.9-.3q.2,1.8.3,4.4t.3,5.5l.3,6q.2,3,.2,5.8t.1,5v3.5l-7.5-.3.6-33V71.6l8.1,1.3,6.7.9,5.3.5.6,6.9a53.7,53.7,0,0,1,.2,6.4,37.9,37.9,0,0,1-.3,6.2l-3.5.8-3.2.4a10,10,0,0,1-3-.2Z" fill="#685317"/>
    <path d="M304.7,61.9l3.1-.4,4.7-.5,5.6-.6,6-.5,15.2-1.3v5.8a39,39,0,0,1-7.5,1.4l.2,1.5.4,3.7.6,5.3.6,6.4h16.1l.2,6.4-7.7.6-7.9.2q.5,5.7.8,11t.2,8.4h-7.6q-.1-2.8-.2-6l-.2-6.2-.2-7.4L315.5,89a45.2,45.2,0,0,1-2.1,9.2,14.7,14.7,0,0,1-4.1,6.5l-6.8-3.2,1.7-3.7,1.7-4.3a42.6,42.6,0,0,0,1.8-5.4l-5-.6-3.8-.6-3.3-.5.6-4.1,6.5.2,6.6.2q.6-2.8,1.1-5.8a58.7,58.7,0,0,0,.6-6.1h4.5a35.3,35.3,0,0,1,.6,5,68.2,68.2,0,0,1,0,7h11q-.2-5.2-.2-9.7V66.4l-7.7.2h-6.9l-6.9-.2Z" fill="#685317"/>
    <path d="M395.6,72.1q-1,10.9-5.1,18.1a20.3,20.3,0,0,1,3.8,2.7l-3.7,6-1.3-.9-1.4-1-1.7-1.3a27.4,27.4,0,0,1-12.2,7.1L370.3,97a49.8,49.8,0,0,0,5-2.3,24.8,24.8,0,0,0,4.7-3.4l-3.1-2.2-2.7-1.9-2.1-1.4-1.1-.7.6-1.8.7-2.1.9-2.8-2.4-.3-2.5-.3.3-6.3,1.7.2,2.1.2,2.6.2q.9-3.1,1.7-6.6l1.7-7.2,7.2,1.2-1,4.1-1.1,4.1a47.7,47.7,0,0,1-1.5,4.7h6.8ZM377,83.4l2.1,1,2.3,1.1,2.7,1.4a32.4,32.4,0,0,0,4.2-9.1,39.1,39.1,0,0,1-8.7,1l-1.4,2.6A16,16,0,0,1,377,83.4Zm42.6-25.3a35.6,35.6,0,0,1-4.3,8.2,38.5,38.5,0,0,1-4.5,5.2,28.7,28.7,0,0,1-5,3.7l7,.8a83.7,83.7,0,0,0,8.8.3l.3,4.3a58.3,58.3,0,0,1-8.7,1.2,67.3,67.3,0,0,1-6.9,0,32.2,32.2,0,0,1-4.7-.5l-1.8-.4-.5-6a48.8,48.8,0,0,0,6-6.8,66.2,66.2,0,0,0,4.2-6.6,55,55,0,0,0,3.3-6.9ZM401.2,111l.6-9.9.2-3.6q.1-1.8.2-3.2t.1-2.3V90.9l6.4-.3V91a2.4,2.4,0,0,0,0,.4,2.5,2.5,0,0,1,0,.4l4.5-.2h13.1q.7,4.9,1.1,9.1l.3,3.5a30.1,30.1,0,0,1,.2,3.3v2.7a5.8,5.8,0,0,1-.2,1.6q-5.1.6-9.9.7h-4.3l-4.4-.2-4.2-.5a23.1,23.1,0,0,1-3.6-.9ZM409,96.1q.2,2.5.2,5.4t-.1,5.1l5.1.3,5.7.4q.1-1.9.1-3.9t-.1-3.6q-.1-1.9-.3-3.6Zm24-15.9-5.6,4.1a11.7,11.7,0,0,1-2.7-3.5,35.1,35.1,0,0,1-2-4.3,52,52,0,0,1-1.7-5.3l4-2.2Z" fill="#685317"/>
  </g>
</svg>
