<svg xmlns="http://www.w3.org/2000/svg" xmlns:xlink="http://www.w3.org/1999/xlink" viewBox="0 0 560 208">
    <!--<defs>-->
    <linearGradient id="a" x1="0" y1="0" x2="0" y2="100%" gradientUnits="userSpaceOnUse">
            <stop offset="0" stop-color="#e6ddbb"/>
            <stop offset="1" stop-color="#fbf6e4"/>
        </linearGradient>
    <!--</defs>-->
    <title>play_state_waiting_btn</title>
    <path d="M103,4H459a99,99,0,0,1,99,99v4a99,99,0,0,1-99,99H103A99,99,0,0,1,4,107v-4A99,99,0,0,1,103,4Z"
          transform="translate(-1 -1)" fill="#ebebeb" stroke="#5d5d5d" stroke-width="6" opacity="0.5"
          style="isolation:isolate"/>
    <path d="M105,11H457a94,94,0,0,1,94,94h0a94,94,0,0,1-94,94H105a94,94,0,0,1-94-94h0A94,94,0,0,1,105,11Z"
          transform="translate(-1 -1)" fill="#807c6b"/>
    <path d="M104.5,11h353A92.5,92.5,0,0,1,550,103.5h0A92.5,92.5,0,0,1,457.5,196h-353A92.5,92.5,0,0,1,12,103.5h0A92.5,92.5,0,0,1,104.5,11Z"
          transform="translate(-1 -1)" fill="#908b77"/>
    <rect x="11" y="10" width="538" height="183" rx="90" ry="90" fill="#a7a394"/>
    <path d="M107,4H457a89,89,0,0,1,89,89h0a89,89,0,0,1-89,89H107A89,89,0,0,1,18,93h0A89,89,0,0,1,107,4Z"
          transform="translate(-1 -1)" fill="url(#a)"/>
    <path d="M457,16H107A89,89,0,0,0,18.2,99c-.1-2-.2-4-.2-6A89,89,0,0,1,107,4H457a89,89,0,0,1,89,89c0,2-.1,4-.2,6A89,89,0,0,0,457,16Z"
          transform="translate(-1 -1)" fill="#f9f6ea"/>
    <path d="M208.2,111.9h-7.9q.2-2.2.2-4.2l8.2.4v-4.1l-8.1-.6q0-1-.1-1.9c0-.6-.1-1.1-.1-1.5h9.3l2.7.3q.4,4,.4,7.7t0,6.5q-.1,3.3-.2,6.2h-4.9l.6,4.1,4.1.4H216a13.3,13.3,0,0,0,3.2-.5,77.6,77.6,0,0,0,.6-8.5q.1-3.9-.3-9a77.6,77.6,0,0,0-1.6-10.8l-9.5-.2H194.7q-.2,3.2-.5,6.4l-.6,6.4q-.3,3.1-.6,6t-.7,5.1l6.2.6q.6-2.2,1.1-4.5h8.6Zm13.4-42.7H209.9q0-1,0-1.9c0-.6,0-1.1,0-1.5V64.5h-6.5l.2,4.8h-6.9l-4.9-.2.4,4.5,3.4.3,3.7.2h4.5q0,1,0,1.9t0,1.9h-4.4l-4.2-.2-.3,3.2,2.5.4,2.9.4,3.6.4q.1,1.4.1,2.5v2.1l-12.8-.3-.2,3.2q5.4,1.2,10.7,1.9l4.7.5,4.9.3h4.8a28,28,0,0,0,4.5-.7l.2-4.5-11.3-.2q.1-1,.2-2.1V82.4h4.6a33.1,33.1,0,0,0,4.4-.4V77.8h-9q.1-1,.1-2v-2q3.5-.1,6.6-.6a19.3,19.3,0,0,0,5.2-1.4Zm-45,25.7q-.1,1.6-.2,4.1t0,5.3q0,2.8.2,5.5t.4,4.6a13.2,13.2,0,0,0,4.8-.6,19.7,19.7,0,0,0,4-1.7,20.1,20.1,0,0,0,3.7-2.6l-1.7-3.8-5.3,1.5a38.4,38.4,0,0,0,.5-4.4q.2-2.9.3-5.8t.2-7.1h-4.8l-4.6.3-4.8.4.4,4.2ZM183.4,81a10,10,0,0,0-2.1-2.3l-2.6-2-3.2-2-3.1,3.7,2.2,2.3,2.2,2.4,2.2,2.7Zm85.3,10.5q-.2,2.4-.4,5.3l-.5,5.8-.5,5.7-.5,5q-.2,2.3-.3,3.6l6.5.6.4-1.6.4-2q.3-1.2.5-2.9h12.2v-4.4l-11.7-.3q.1-1.1.1-2.3t0-2.6h10.9V97.3L274.7,97l-.2-5.3,6.8-.3h8.3q.1,5.2.2,10.1t.1,8.8q.1,4.5.1,8.6h-6l.2,4,3.5.7,3.9.3a20.8,20.8,0,0,0,4.8-.5q.4-5.4.4-11.4t-.3-11.6q-.3-6.4-1.3-12.9h-9.9q0-2.4,0-5.1t-.1-5.4q-.1-2.7-.3-5.3a48.4,48.4,0,0,0-.6-4.9h-4.6a53.5,53.5,0,0,0-.5,5.5q-.2,3.3-.3,6.4t-.1,5.6v3.1h-6.2l-3.8.2-.3,4.1Zm-16.5,23.3,5-.3q.2-2.7.3-5.6t0-5.7l3,1.3a15.2,15.2,0,0,0,3.3.8l1.7-3-8-5.1q-.1-.9-.1-1.7c0-.5,0-1.1,0-1.6l3.3-.5,3.3-.8-.2-4.5-6.8.9q-.1-.9-.1-1.7t-.1-1.3a10.3,10.3,0,0,1-.1-1.2l-6.1.4.2,4.5-7.5.9.2,3.1,2.2.2,5.4.2Zm5.3-41.5L254,75.5l-4,1.8a43.7,43.7,0,0,1-5.1,1.8l2.2,4.8a14.1,14.1,0,0,0,4.6-.8,17.1,17.1,0,0,0,4-2.3,11.9,11.9,0,0,0,3.6-4.8Zm36.6,10a6.2,6.2,0,0,0,3-2,18.8,18.8,0,0,0,1.9-2.8,24.6,24.6,0,0,0,1.4-3.6L296,72.1a10.6,10.6,0,0,1-1.8,2.6L292,76.9a20.2,20.2,0,0,1-2.8,2.1Zm-18.3-3.5-2.1-2.3-1.6-2.2-1.4-2.2-4.2,2.2a13.8,13.8,0,0,0,.9,3.2,20.3,20.3,0,0,0,1.3,2.5,14.1,14.1,0,0,0,1.7,2.2ZM248.4,98.4l-2.1,1.8-2.2,1.6-2.5,1.7,2.8,3.8a5.2,5.2,0,0,0,2.2-.7,10.7,10.7,0,0,0,2.2-1.7,14.7,14.7,0,0,0,2.4-3.5h0Zm81-10.3a60.7,60.7,0,0,0,8.4.9v5.3l-11.5-.4-.4,4.3a80.7,80.7,0,0,0,9.9,1.9,63.7,63.7,0,0,0,9.1.5,26.7,26.7,0,0,0,8.9-1.5V94.9l-10.3-.4.3-2.6q.2-1.4.3-3l3.6-.5,2.7-.6,2.3-.7V83.7h-8.3q.2-2.2.2-4.2l-6.6-.9v4.9l-4.9-.3-3.9-.3ZM327,111.5l4.5.6,4.7.4h5.6q.6,3.6,1,6t.4,2.7l-5.5-.4v4.6a15.8,15.8,0,0,0,3.7.4l3.6-.2,3.7-.7q.1-2.7,0-6.2t-.4-6.8a28.5,28.5,0,0,0,7.5-2l-1-4.8-1.9.3-2.2.3-2.8.3a11.4,11.4,0,0,1-.2-1.4,10.7,10.7,0,0,0-.1-1.1,6.5,6.5,0,0,1-.1-.9l-6.8.5c0,.4,0,1,.1,1.6s.1,1.3.2,2.1l-6.9.4h-7.1v4.3Zm-3.2-35.4a12.4,12.4,0,0,0,3.3-3,19.1,19.1,0,0,0,2.1-3.4,20.6,20.6,0,0,0,4,1l3.7.4h3.7l-.3-4.8-5.9-.2-4-.3q.3-1.7.4-3.1a5.3,5.3,0,0,0,0-1.2l-4.5-.7a19.1,19.1,0,0,1-1.8,4.7,37.3,37.3,0,0,1-2.3,3.7,24.6,24.6,0,0,1-2.9,3.3Zm24.3,2a10,10,0,0,0,3.2-3,16.4,16.4,0,0,0,1.8-3.7l3.9.4h7.2l-.8-5.3-5.3.5-4.1.3a8.5,8.5,0,0,0,.1-1.5V63.5l-4.3-.6a38.6,38.6,0,0,1-1.8,4.8q-1,2.2-1.9,3.9a39.1,39.1,0,0,1-2.2,3.5Zm-20.7,38.7a4.8,4.8,0,0,0,1.5,2.4,14.2,14.2,0,0,0,2.3,1.7l3,1.4,2.8-3.7a11.9,11.9,0,0,1-2-1.6l-1.8-1.8-1.7-2.1Zm26.5-40.2a8.1,8.1,0,0,0,1.9,2.1l2,1.3,2.2.9,2.4-4.5-2.7-1.1-2.2-.8-2-.6ZM328.5,76a4.9,4.9,0,0,0,1.3.9l1.5.6,1.8.4,2.1-3-1.9-1.3-1.7-.9-1.7-.8Zm59.1,37.4a3.8,3.8,0,0,0,1.5-3,4.3,4.3,0,0,0-1.1-3.2,3.9,3.9,0,0,0-3-1.2,4.9,4.9,0,0,0-2.1.4,4.1,4.1,0,0,0-1.3,1,3.5,3.5,0,0,0-.7,1.3,4.2,4.2,0,0,0-.2,1.3,6.3,6.3,0,0,0,1,3.2,3.2,3.2,0,0,0,2.8,1.5,4.9,4.9,0,0,0,3.1-1.1Zm13.8,0a3.8,3.8,0,0,0,1.5-3,4.3,4.3,0,0,0-1.1-3.2,3.9,3.9,0,0,0-3-1.2,4.9,4.9,0,0,0-2.1.4,4.1,4.1,0,0,0-1.3,1,3.5,3.5,0,0,0-.7,1.3,4.2,4.2,0,0,0-.2,1.3,6.3,6.3,0,0,0,1,3.2,3.2,3.2,0,0,0,2.8,1.5,4.9,4.9,0,0,0,3.1-1.1Zm13.8,0a3.8,3.8,0,0,0,1.5-3,4.3,4.3,0,0,0-1.1-3.2,3.9,3.9,0,0,0-3-1.2,4.9,4.9,0,0,0-2.1.4,4.1,4.1,0,0,0-1.3,1,3.5,3.5,0,0,0-.7,1.3,4.2,4.2,0,0,0-.2,1.3,6.3,6.3,0,0,0,1,3.2,3.2,3.2,0,0,0,2.8,1.5,4.9,4.9,0,0,0,3.1-1.1Z"
          transform="translate(-1 -1)" fill="#918f8a"/>
</svg>