<svg xmlns="http://www.w3.org/2000/svg" xmlns:xlink="http://www.w3.org/1999/xlink" viewBox="0 0 560 208">
    <!--<defs>-->
    <linearGradient id="a" x1="0" y1="0" x2="0" y2="100%" gradientUnits="userSpaceOnUse">
            <stop offset="0" stop-color="#387ff8"/>
            <stop offset="1" stop-color="#90c6fd"/>
        </linearGradient>
    <!--</defs>-->
    <title>play_sim_btn</title>
    <path d="M103,4H459a99,99,0,0,1,99,99v4a99,99,0,0,1-99,99H103A99,99,0,0,1,4,107v-4A99,99,0,0,1,103,4Z"
          transform="translate(-1 -1)" fill="#ebebeb" stroke="#5d5d5d" stroke-width="6" opacity="0.5"
          style="isolation:isolate"/>
    <path d="M105,11H457a94,94,0,0,1,94,94h0a94,94,0,0,1-94,94H105a94,94,0,0,1-94-94h0A94,94,0,0,1,105,11Z"
          transform="translate(-1 -1)" fill="#425c83"/>
    <path d="M103.5,11h355A92.5,92.5,0,0,1,551,103.5h0A92.5,92.5,0,0,1,458.5,196h-355A92.5,92.5,0,0,1,11,103.5h0A92.5,92.5,0,0,1,103.5,11Z"
          transform="translate(-1 -1)" fill="#456698"/>
    <path d="M102,11H460a91,91,0,0,1,91,91h0a91,91,0,0,1-91,91H102a91,91,0,0,1-91-91h0A91,91,0,0,1,102,11Z"
          transform="translate(-1 -1)" fill="#4875b9"/>
    <path d="M107,4H457a89,89,0,0,1,89,89h0a89,89,0,0,1-89,89H107A89,89,0,0,1,18,93h0A89,89,0,0,1,107,4Z"
          transform="translate(-1 -1)" fill="url(#a)"/>
    <path d="M457,16H107A89,89,0,0,0,18.2,99c-.1-2-.2-4-.2-6A89,89,0,0,1,107,4H457a89,89,0,0,1,89,89c0,2-.1,4-.2,6A89,89,0,0,0,457,16Z"
          transform="translate(-1 -1)" fill="#b0d8fd"/>
    <path d="M135.3,71.1a16.7,16.7,0,0,0-.5,4.4l8.6.7a15.7,15.7,0,0,0,.6,4,3.8,3.8,0,0,0,2.1.4,4,4,0,0,0,2.2-.4,35,35,0,0,0,.4-3.7l9.8.4c-.2,1.1-.4,2.2-.5,3.4a11.3,11.3,0,0,0,4.4.9c.3-1.4.6-2.8.9-4.2H171a29.1,29.1,0,0,0,.4-4.3l-7.1-.6.6-4.6-4.2-.6a48.6,48.6,0,0,0-1.3,4.9l-10.7-.6c-.1-1.6-.2-3.5-.4-5.6l-2.2-.3-2.1.3a27.1,27.1,0,0,0-.7,5.5Zm13.2,11.2a10.9,10.9,0,0,0-.1,2.2,4.9,4.9,0,0,0,.4,2.4c1.8.3,6.3.7,13.5,1.2.1,2.1.1,4,.1,5.6a27.3,27.3,0,0,1-.3,4.2c-6,0-12-.1-18-.4-.1-1.2-.1-2.4-.1-3.5a81.5,81.5,0,0,0,10.3.6,16.8,16.8,0,0,0,.4-3.8c-3.6-.6-7.3-.9-10.9-1.2-.1-2.5-.1-4.3-.1-5.3a7.5,7.5,0,0,0-2.2-.4,6.4,6.4,0,0,0-2.3.4c-.3,4.6-.4,7.8-.4,9.5,0,3.7.3,6.3.9,7.7a61.2,61.2,0,0,0,10.6,1.1,43,43,0,0,0-1.9,4.5l-9.8-.2a8.5,8.5,0,0,0-.1,1.9V111l8.1.9c-1.3,3.3-2.4,6.6-3.6,10.2a11.1,11.1,0,0,0,4,1.9c1.9-3.9,3.7-7.8,5.3-11.7,5.5.4,11,.6,16.6.6a23.1,23.1,0,0,0,.4-4.3l-15.2-1.2c.6-1.5,1.1-3.1,1.6-4.8a54.8,54.8,0,0,0,11-.9c.1-1.7.3-4.4.3-8.1,0-5.3-.2-8.7-.6-10.2C160.7,82.8,154.7,82.4,148.5,82.3Zm14.6,33.1a17.5,17.5,0,0,0-3.7,2.6,39,39,0,0,0,5.1,5.9,8.2,8.2,0,0,0,3.6-2.7,62.6,62.6,0,0,0-5-5.8ZM123.4,75.7a9.8,9.8,0,0,0-2.4.4c0,3,0,6.1.1,9.3h-8.8a9.5,9.5,0,0,0-.1,2.2,6.9,6.9,0,0,0,.3,2.3,63,63,0,0,0,8.8.5c0,1.7.1,3.4.2,5a89.7,89.7,0,0,0-9.4,6,11.1,11.1,0,0,0,2.7,3.8,74.2,74.2,0,0,0,7.1-4c.1,3.4.4,6.8.7,10.4a9.3,9.3,0,0,0,2.4.1,7.1,7.1,0,0,0,2.4-.3c0-3.2-.1-6.3-.1-9.5a26.7,26.7,0,0,0,5,1.7,16.4,16.4,0,0,0,1.9-4l-7-3.2c-.1-2-.2-4-.3-6,3.7,0,5.8-.2,6.3-.6V87.8a15.5,15.5,0,0,0-.1-2,33,33,0,0,0-6.6-.4c-.2-3.2-.5-6.3-.8-9.4A7.6,7.6,0,0,0,123.4,75.7ZM191,82.9l-6.2.2a6,6,0,0,0-.4,2.3,6.9,6.9,0,0,0,.3,2.3c.3.3,2.4.4,6.3.4h.4c.1,2.3.3,4.7.6,7-2.3.4-4.5.9-6.6,1.4a12.6,12.6,0,0,0,.9,4,59.1,59.1,0,0,0,6.1-.7c.2,2.6.5,5.1.8,7.7a13.9,13.9,0,0,0,4.6-.6l-.4-7.9a38.2,38.2,0,0,0,5.3-1.3,10.1,10.1,0,0,0-.9-4l-4.8.6c-.1-2-.4-4-.5-6.2a28.2,28.2,0,0,0,5.2-.3,5.7,5.7,0,0,0,.3-2.2,7.6,7.6,0,0,0-.3-2.2l-5.7-.4-.6-6.8-4.6.6c.1,2,.1,4,.3,6.1H191Zm18.6,6.8a30.8,30.8,0,0,0-4.5,1.2,161.4,161.4,0,0,0,4,20,86.1,86.1,0,0,0,12.9-1.9,38.2,38.2,0,0,0-.9-4.2l-8.4,1.2q-1.5-7.9-3-16.2Zm6.3-8.5L213.4,85a38.4,38.4,0,0,0,9.6,5.4,22.4,22.4,0,0,0,2.1-3.8,72.6,72.6,0,0,0-9.3-5.4Zm17.7,4.2c-2.9,8.1-5.8,16.6-8.5,25.8a16.8,16.8,0,0,0,4.5,1.5,36,36,0,0,0,1.5-3.5,32,32,0,0,1,1.1-3.2l1-2.7a43.2,43.2,0,0,0,8.9,4,17.1,17.1,0,0,0,1.9-3.5c-3.3-1.9-6.4-3.5-9.3-4.9,1.3-4.1,2.4-8.2,3.4-12.2a19.4,19.4,0,0,0-4.6-1.3Zm41.5-1.7-7,.6-.9-6.8-4.8.6c.1,2.3.2,4.5.4,6.8l-8.4.9a31.7,31.7,0,0,0,.9,5l7.9-.6c.1,2.7.4,5.5.7,8.4l-7.6,1.8a13.8,13.8,0,0,0,.9,4.5,59.6,59.6,0,0,0,7.2-.9c.3,3.2.7,6.4,1.2,9.6a15.2,15.2,0,0,0,4.8-.6c-.2-3.3-.4-6.6-.7-10a62.4,62.4,0,0,0,6-1.6,13.4,13.4,0,0,0-.9-4.5l-5.5.7c-.3-2.6-.5-5.2-.8-7.9l7-.9c-.1-1.8-.3-3.5-.6-5Zm31.3-13.6a101.4,101.4,0,0,0-29.2,7.1A8.2,8.2,0,0,0,278,81a202.4,202.4,0,0,0,29.3-6.8,8.1,8.1,0,0,0-1-4ZM284.2,83a223,223,0,0,0-6.5,32.3,5.2,5.2,0,0,0,1.8.6l2.7.4c2.3-9.9,4.3-20.7,6-32.3a16,16,0,0,0-4-1ZM296,96.6l-2.2.3a38.3,38.3,0,0,0-.7,7.7,60.4,60.4,0,0,0,.7,10.4,4,4,0,0,0,2.2.4,3.9,3.9,0,0,0,2.1-.4,94.7,94.7,0,0,0,.4-10.4c0-2.1-.1-4.7-.4-7.7Zm9.2-14.5a19.1,19.1,0,0,0-4.2,1.5c3,10.4,6.6,20.6,10.5,30.7a13.4,13.4,0,0,0,4.5-1.8C312.7,102.2,309.1,92.2,305.2,82.1Zm26.9-11.5a22.2,22.2,0,0,0-.4,4.4,210.8,210.8,0,0,0,30.9,2.2,19.6,19.6,0,0,0,.4-4.2c-10.3-1.3-20.6-2.2-30.9-2.4Zm3,11.4-2.7.3a209.5,209.5,0,0,0,1.3,23.4l-4.2.3a20.9,20.9,0,0,0,.4,4.3c7.2,0,14.5-.2,22-.7.1,2.2.1,4.3.3,6.6h2.4l2.4-.2v-6.8l3.9-.4v-2.1a16.6,16.6,0,0,0-.1-2h-3.8c-.1-8.4-.4-16.2-.9-23.7a8.8,8.8,0,0,0-2.4-.3,9.9,9.9,0,0,0-2.4.4c0,7.5.1,15.3.4,23.6l-13.2.5c0-1.7-.1-3.6-.1-5.5a37.5,37.5,0,0,0,8.1-1.2,38,38,0,0,0-.3-4.2l-7.9.9-.2-4.1a46.7,46.7,0,0,0,8.6-1.3,38,38,0,0,0-.3-4.2c-3,.2-5.8.5-8.5.9-.1-1.6-.2-3.2-.4-4.8h-2.4Zm29,15.9a13.4,13.4,0,0,0-1.6,3.8c2.6,1.5,5.1,2.9,7.6,4-1.1,1.9-2.2,3.9-3.3,5.8a10.3,10.3,0,0,0,4.1,2.4c1.4-1.9,2.7-4,4-6a63.7,63.7,0,0,0,10.1,3.7,11.7,11.7,0,0,0,1.8-3.5c-2.9-1.7-5.9-3.4-9-4.9a81,81,0,0,0,6.3-13.6,147,147,0,0,0-18.9-1.7,15.6,15.6,0,0,0-.5,4.2c3.7.6,7.8,1,12.2,1.4l-4.1,7.4c-2.8-1.1-5.7-2.1-8.7-3Z"
          transform="translate(-1 -1)" fill="#fff"/>
    <path d="M455.5,162A36.5,36.5,0,1,1,492,125.5h0A36.5,36.5,0,0,1,455.5,162Zm0-67A30.5,30.5,0,1,0,486,125.5,30.5,30.5,0,0,0,455.5,95ZM478,136l-14,10,8-11-11-8h-3v9l-1,1-1,1h-1l-1-1-1-1v-9h-4l-10,8,8,11-14-10-1-1v-2l12-10,2-4h7v-3l1-1h3l1,1v3h7l2,4,12,10v2Zm-20-24h-5a5,5,0,0,1,0-10h5a5,5,0,0,1,0,10Z"
          transform="translate(-1 -1)" fill="#fff"/>
    <path d="M421.5,38h68a19.5,19.5,0,0,1,0,39H463.7c-2.7,5.9-6.3,5.9-10.6,0H421.5a19.5,19.5,0,0,1,0-39Z"
          transform="translate(-1 -1)" fill="#fff"/>
</svg>