<svg id="b936924c-b416-48ae-98ff-bd28810b6491" data-name="组 5 拷贝 2" xmlns="http://www.w3.org/2000/svg" width="88" height="88" viewBox="0 0 88 88">
  <title>right</title>
  <rect id="f48e2a93-ba44-4c47-b822-2b4050f14eff" data-name="颜色填充 18" width="88" height="88" rx="20" ry="20" fill-opacity="0.4"/>
  <path id="69598176-9455-45a9-a379-cd9e013d6717" data-name="颜色填充 19 拷贝" d="M29.6,35.57,41.66,48.5,29.6,61.43c-3.14,3.1-1.15,9.13,2,12.23s10.21,3.1,13.34,0L63.67,55.12C66.8,52,66.8,44,63.67,40.89L45.92,23.34c-3.13-3.1-11.2-3.1-14.33,0S26.46,32.47,29.6,35.57Z"/>
  <path id="bf239950-35e1-48a9-8cd2-3486a2f13861" data-name="颜色填充 19 拷贝 copy" d="M32.58,32.57,44.64,44.5,32.58,56.43a7.88,7.88,0,0,0-.09,11.15l.09.09a8.09,8.09,0,0,0,11.35,0L61.67,50.12A7.88,7.88,0,0,0,61.76,39l-.09-.09L43.93,21.34a8.09,8.09,0,0,0-11.35,0,7.88,7.88,0,0,0-.09,11.15Z" fill="#ffe0a7" stroke="#000" stroke-width="2"/>
</svg>
